<?xml version="1.0" encoding="UTF-8"?>
<!DOCTYPE svg PUBLIC "-//W3C//DTD SVG 1.1//EN" "http://www.w3.org/Graphics/SVG/1.1/DTD/svg11.dtd">
<!-- Creator: CorelDRAW X7 -->
<svg xmlns="http://www.w3.org/2000/svg" xml:space="preserve" width="0.853331in" height="0.853331in" version="1.1" style="shape-rendering:geometricPrecision; text-rendering:geometricPrecision; image-rendering:optimizeQuality; fill-rule:evenodd; clip-rule:evenodd"
viewBox="0 0 853 853"
 xmlns:xlink="http://www.w3.org/1999/xlink">
 <defs>
  <style type="text/css">
   <![CDATA[
    .fil1 {fill:#FEFEFE}
    .fil2 {fill:#F0D6AB}
    .fil3 {fill:#FEFEFE;fill-rule:nonzero}
    .fil4 {fill:#F0D6AB;fill-rule:nonzero}
    .fil0 {fill:#FF3877;fill-rule:nonzero}
   ]]>
  </style>
 </defs>
 <g id="Layer_x0020_1">
  <metadata id="CorelCorpID_0Corel-Layer"/>
  <path class="fil0" d="M843 427c0,230 -186,416 -416,416 -230,0 -416,-186 -416,-416 0,-230 186,-416 416,-416 230,0 416,186 416,416z"/>
  <path class="fil1" d="M427 296c-123,0 -232,19 -281,28 -15,4 -25,18 -22,33 60,251 270,282 299,286 3,0 5,0 7,0 29,-4 240,-35 299,-286 4,-15 -6,-29 -22,-33 -49,-9 -157,-28 -280,-28z"/>
  <path class="fil2" d="M291 303c-64,6 -115,15 -145,21 -15,4 -25,18 -22,33 21,86 59,147 102,189 -14,-61 -27,-125 -26,-154 0,-61 88,-88 91,-89z"/>
  <path class="fil3" d="M127 329c-1,0 -10,5 -20,17 -10,12 -20,31 -20,57 0,4 0,8 1,13 3,27 10,48 17,65 7,17 12,31 12,46 0,2 0,4 0,6 -1,3 -1,6 -1,9 0,17 6,32 16,43 10,11 24,19 40,24 9,3 18,4 28,4 41,0 80,-21 81,-21 3,-2 4,-5 2,-8 -1,-3 -5,-4 -8,-3 0,0 0,0 -1,1 -8,4 -42,19 -74,19 -9,0 -17,-1 -25,-4 -14,-4 -26,-11 -34,-20 -8,-9 -13,-21 -13,-35 0,-2 1,-5 1,-7 0,-3 0,-6 0,-8 0,-18 -6,-33 -13,-50 -6,-18 -13,-37 -16,-63 -1,-4 -1,-8 -1,-11 0,-23 8,-39 17,-49 4,-5 9,-9 12,-11 1,-1 3,-2 3,-3l1 0 1 -1 0 0c3,-1 4,-5 2,-8 -1,-3 -5,-4 -8,-2z"/>
  <path class="fil3" d="M721 339l0 0c1,1 9,6 17,16 9,10 17,26 17,48 0,3 0,7 -1,11 -3,26 -10,45 -17,63 -6,17 -13,32 -13,50 0,2 1,5 1,8 0,2 0,5 0,7 0,14 -4,26 -13,35 -8,9 -19,16 -34,20 -7,3 -16,4 -24,4 -19,0 -38,-5 -52,-10 -7,-2 -13,-5 -17,-7 -2,-1 -4,-1 -5,-2 -1,-1 -2,-1 -2,-1 -2,-1 -6,0 -8,3 -1,3 0,6 3,8 0,0 40,21 81,21 9,0 19,-1 28,-4 16,-5 30,-13 40,-24 10,-11 15,-26 15,-43 0,-3 0,-6 0,-9 0,-2 -1,-4 -1,-6 0,-15 6,-29 12,-46 7,-17 15,-38 18,-65 1,-5 1,-9 1,-13 0,-26 -10,-45 -20,-57 -10,-12 -20,-17 -20,-17 -3,-2 -7,-1 -8,2 -2,3 -1,7 2,8z"/>
  <polygon class="fil4" points="247,397 607,397 607,385 247,385 "/>
  <polygon class="fil4" points="247,452 607,452 607,440 247,440 "/>
  <polygon class="fil4" points="247,506 607,506 607,494 247,494 "/>
 </g>
</svg>
