<?xml version="1.0" encoding="UTF-8"?>
<!DOCTYPE svg PUBLIC "-//W3C//DTD SVG 1.1//EN" "http://www.w3.org/Graphics/SVG/1.1/DTD/svg11.dtd">
<!-- Creator: CorelDRAW X7 -->
<svg xmlns="http://www.w3.org/2000/svg" xml:space="preserve" width="0.853331in" height="0.853331in" version="1.1" style="shape-rendering:geometricPrecision; text-rendering:geometricPrecision; image-rendering:optimizeQuality; fill-rule:evenodd; clip-rule:evenodd"
viewBox="0 0 853 853"
 xmlns:xlink="http://www.w3.org/1999/xlink">
 <defs>
  <style type="text/css">
   <![CDATA[
    .fil4 {fill:#FEFEFE}
    .fil1 {fill:#C93B40}
    .fil3 {fill:#B4363F}
    .fil2 {fill:#C93B40;fill-rule:nonzero}
    .fil0 {fill:#FF3877;fill-rule:nonzero}
   ]]>
  </style>
 </defs>
 <g id="Layer_x0020_1">
  <metadata id="CorelCorpID_0Corel-Layer"/>
  <path class="fil0" d="M847 427c0,232 -188,420 -420,420 -232,0 -420,-188 -420,-420 0,-232 188,-420 420,-420 232,0 420,188 420,420z"/>
  <path class="fil1" d="M174 238l505 0c28,0 50,23 50,50l0 319c0,27 -22,50 -50,50l-505 0c-27,0 -49,-23 -49,-50l0 -319c0,-27 22,-50 49,-50z"/>
  <path class="fil2" d="M289 174l0 13 275 0c4,0 7,1 10,4 3,3 4,6 4,10l0 174c0,4 -1,7 -4,10 -3,3 -6,4 -10,4l-275 0c-4,0 -7,-1 -10,-4 -2,-3 -4,-6 -4,-10l0 -174c0,-4 2,-7 4,-10 3,-3 6,-4 10,-4l0 -25c-21,0 -38,18 -38,39l0 174c0,21 17,39 38,39l275 0c21,0 39,-18 39,-39l0 -174c0,-21 -18,-39 -39,-39l-275 0 0 12z"/>
  <path class="fil3" d="M655 588l-457 0c-40,0 -73,-34 -73,-74l0 93c0,27 22,49 49,49l505 0c28,0 50,-22 50,-49l0 -93c0,40 -33,74 -74,74z"/>
  <path class="fil4" d="M402 345l50 0c4,0 8,1 12,4l0 1c3,3 4,7 4,11l0 45 45 0c5,0 9,2 12,5l0 0c3,3 5,7 5,12l0 49c0,5 -2,9 -5,12l0 0c-3,3 -8,5 -12,5l-45 0 0 45c0,4 -1,8 -4,11l-1 1c-3,3 -7,4 -11,4l-50 0c-5,0 -9,-1 -12,-4 -3,-4 -5,-8 -5,-12l0 -45 -45 0c-4,0 -8,-2 -11,-5 -4,-3 -5,-7 -5,-12l0 -49c0,-5 1,-9 5,-12 3,-3 7,-5 11,-5l45 0 0 -45c0,-4 2,-9 5,-12 3,-3 7,-4 12,-4z"/>
 </g>
</svg>
