<?xml version="1.0" encoding="UTF-8"?>
<!DOCTYPE svg PUBLIC "-//W3C//DTD SVG 1.1//EN" "http://www.w3.org/Graphics/SVG/1.1/DTD/svg11.dtd">
<!-- Creator: CorelDRAW X7 -->
<svg xmlns="http://www.w3.org/2000/svg" xml:space="preserve" width="0.853331in" height="0.853331in" version="1.1" style="shape-rendering:geometricPrecision; text-rendering:geometricPrecision; image-rendering:optimizeQuality; fill-rule:evenodd; clip-rule:evenodd"
viewBox="0 0 853 853"
 xmlns:xlink="http://www.w3.org/1999/xlink">
 <defs>
  <style type="text/css">
   <![CDATA[
    .fil4 {fill:#E1B2A2}
    .fil1 {fill:#D08882}
    .fil6 {fill:#58C7DC}
    .fil7 {fill:#3FC1CD}
    .fil3 {fill:#FEFEFE;fill-rule:nonzero}
    .fil5 {fill:#E1B2A2;fill-rule:nonzero}
    .fil2 {fill:#D08882;fill-rule:nonzero}
    .fil0 {fill:#FF3877;fill-rule:nonzero}
   ]]>
  </style>
 </defs>
 <g id="Layer_x0020_1">
  <metadata id="CorelCorpID_0Corel-Layer"/>
  <path class="fil0" d="M845 429c0,227 -184,411 -411,411 -227,0 -411,-184 -411,-411 0,-227 184,-411 411,-411 227,0 411,184 411,411z"/>
  <path class="fil1" d="M676 495l0 -171 156 0c9,34 13,69 13,105l0 0c0,23 -1,45 -5,66l-164 0z"/>
  <path class="fil2" d="M734 324c0,0 -57,-45 -109,-59 -53,-15 -116,-98 -124,-102 -8,-4 -31,32 0,74 31,42 51,71 44,73 -6,2 -195,-27 -223,-27 -44,-1 -44,23 -36,28 39,28 115,38 165,50 49,12 -73,13 -132,12 -59,0 -69,17 -67,28 4,19 38,26 149,28 112,1 79,10 62,15 -16,5 -170,15 -178,38 -8,23 22,40 96,31 73,-10 111,-12 111,-8 0,5 -142,52 -136,81 7,30 138,-17 175,-25 36,-8 170,-24 194,-48 24,-23 35,-170 9,-189z"/>
  <path class="fil3" d="M673 403c0,43 -35,77 -77,77 -42,0 -77,-34 -77,-77 0,-42 35,-77 77,-77 42,0 77,35 77,77z"/>
  <path class="fil3" d="M639 596c0,62 -50,112 -112,112 -61,0 -112,-50 -112,-112 0,-62 51,-112 112,-112 62,0 112,50 112,112z"/>
  <path class="fil3" d="M613 345c0,61 -49,109 -109,109 -60,0 -109,-48 -109,-109 0,-60 49,-109 109,-109 60,0 109,49 109,109z"/>
  <path class="fil3" d="M527 429c0,42 -34,77 -76,77 -43,0 -77,-35 -77,-77 0,-43 34,-77 77,-77 42,0 76,34 76,77z"/>
  <path class="fil3" d="M410 333c0,42 -34,77 -77,77 -42,0 -77,-35 -77,-77 0,-43 35,-77 77,-77 43,0 77,34 77,77z"/>
  <path class="fil3" d="M410 454c0,61 -49,111 -110,111 -61,0 -111,-50 -111,-111 0,-61 50,-110 111,-110 61,0 110,49 110,110z"/>
  <path class="fil3" d="M462 586c0,64 -52,116 -117,116 -64,0 -116,-52 -116,-116 0,-64 52,-116 116,-116 65,0 117,52 117,116z"/>
  <path class="fil4" d="M555 586l0 -171 290 0c0,5 0,9 0,14l0 0c0,56 -11,109 -31,157l-259 0z"/>
  <path class="fil5" d="M612 415c0,0 -57,-45 -109,-60 -52,-14 -116,-97 -124,-101 -8,-4 -30,31 0,73 31,42 51,72 45,74 -7,2 -195,-27 -223,-28 -45,-1 -45,23 -37,29 40,28 116,38 165,50 50,12 -73,12 -132,12 -58,-1 -69,16 -66,28 4,19 37,26 149,27 112,2 78,10 62,15 -17,5 -171,16 -179,39 -8,23 23,40 96,31 74,-10 112,-13 112,-8 0,5 -143,51 -136,81 6,30 138,-17 174,-25 37,-8 170,-25 194,-48 25,-24 35,-170 9,-189z"/>
  <path class="fil6" d="M230 265c2,6 4,13 4,20 0,26 -21,47 -47,47 -26,0 -47,-21 -47,-47 0,-7 2,-14 5,-20 0,0 38,-85 42,-85 4,0 43,85 43,85z"/>
  <path class="fil7" d="M230 265c0,0 -39,-85 -43,-85 -1,0 -2,2 -5,6 13,26 29,63 29,63 3,6 5,13 5,20 0,26 -21,47 -47,47 -7,0 -15,-1 -21,-5 9,13 23,21 39,21 26,0 47,-21 47,-47 0,-7 -2,-14 -4,-20z"/>
  <polygon class="fil3" points="294,133 305,176 348,186 305,197 294,240 283,197 241,186 283,176 "/>
  <polygon class="fil3" points="405,66 419,119 472,132 419,146 405,199 392,146 339,132 392,119 "/>
 </g>
</svg>
