<?xml version="1.0" encoding="UTF-8"?>
<!DOCTYPE svg PUBLIC "-//W3C//DTD SVG 1.1//EN" "http://www.w3.org/Graphics/SVG/1.1/DTD/svg11.dtd">
<!-- Creator: CorelDRAW X7 -->
<svg xmlns="http://www.w3.org/2000/svg" xml:space="preserve" width="4.8in" height="3in" version="1.1" style="shape-rendering:geometricPrecision; text-rendering:geometricPrecision; image-rendering:optimizeQuality; fill-rule:evenodd; clip-rule:evenodd"
viewBox="0 0 4800 3000"
 xmlns:xlink="http://www.w3.org/1999/xlink">
 <defs>
  <style type="text/css">
   <![CDATA[
    .fil8 {fill:#FEFEFE}
    .fil24 {fill:#FBD2D1}
    .fil12 {fill:#FBCDC1}
    .fil27 {fill:#FABA9A}
    .fil2 {fill:#F9AB83}
    .fil21 {fill:#F58F7B}
    .fil26 {fill:#F48670}
    .fil3 {fill:#F37F75}
    .fil29 {fill:#F16C79}
    .fil23 {fill:#F05B6E}
    .fil31 {fill:#E7F0F5}
    .fil16 {fill:#DB445A}
    .fil7 {fill:#DC6A45}
    .fil25 {fill:#DBEBEF}
    .fil15 {fill:#B74153}
    .fil9 {fill:#C7CBCE}
    .fil14 {fill:#C0DEE6}
    .fil17 {fill:#A1543C}
    .fil0 {fill:#953545}
    .fil32 {fill:#A2AED5}
    .fil13 {fill:#94C9D7}
    .fil19 {fill:#7E7396}
    .fil10 {fill:#66AEE0}
    .fil20 {fill:#69648B}
    .fil4 {fill:#4194CF}
    .fil30 {fill:#2881BA}
    .fil5 {fill:#286FB2}
    .fil28 {fill:#24272E}
    .fil6 {fill:#2165A5}
    .fil1 {fill:#342D4C}
    .fil11 {fill:#333557}
    .fil18 {fill:#3A3D71}
    .fil22 {fill:#35355A}
   ]]>
  </style>
 </defs>
 <g id="Layer_x0020_1">
  <metadata id="CorelCorpID_0Corel-Layer"/>
  <g id="_2634227749664">
   <path class="fil0" d="M869 620c0,0 -11,-46 26,-70 37,-24 236,-34 208,174 -28,207 -92,385 26,435 0,0 10,4 6,13 -4,9 -24,3 -24,3 0,0 27,39 -19,65 -45,26 -248,53 -238,-153 10,-206 15,-467 15,-467z"/>
   <path class="fil1" d="M916 728c40,0 72,-32 72,-72 0,-40 -32,-73 -72,-73 -40,0 -73,33 -73,73 0,40 33,72 73,72z"/>
   <path class="fil2" d="M834 900l0 0c-60,0 -110,85 -110,189l0 101c0,6 -8,9 -8,9l-30 12 2 47 50 83 2 -2c19,55 54,92 94,92l0 0c41,0 76,-37 95,-93l3 3 50 -83 1 -47 -30 -12c0,0 -7,-3 -7,-9l-1 0 0 -101c0,-104 -50,-189 -111,-189z"/>
   <path class="fil3" d="M725 1061c0,9 -1,19 -1,28l0 101c0,6 -8,9 -8,9l-30 12 2 47 50 83 2 -2c17,49 47,84 82,91 10,0 19,0 28,-1 14,-3 27,-11 39,-22 -14,-9 -9,-6 -73,-46 -51,-31 -80,-119 -56,-160 6,-11 16,-19 30,-21 -4,-22 -41,-85 -65,-119z"/>
   <path class="fil3" d="M724 1095l0 95c112,53 189,0 221,-31l0 -42c-33,-19 -110,-18 -183,-21 -12,-1 -25,-1 -38,-1z"/>
   <path class="fil4" d="M1220 1307l43 24c0,0 18,13 28,40 10,27 159,500 159,500 0,0 24,96 -26,178 -49,81 -225,304 -225,304l-107 -200 163 -199c0,0 -17,-18 -1,-32l-80 -250 -13 -227 59 -138z"/>
   <path class="fil5" d="M1234 1859l-60 -187 -7 -129 35 -38 32 354zm21 95c0,0 -10,-11 -8,-22l54 9 -46 13 0 0zm35 282c-40,52 -75,96 -87,111l-14 -13 -63 -117 -8 -61 52 -91 120 171 0 0z"/>
   <path class="fil4" d="M448 1307l-42 24c0,0 -18,13 -28,40 -11,27 -159,500 -159,500 0,0 -24,96 25,178 50,81 226,304 226,304l106 -200 -162 -199c0,0 17,-18 1,-32l80 -250 13 -227 -60 -138z"/>
   <path class="fil5" d="M435 1859l60 -187 7 -129 -35 -38 -32 354zm-21 95c0,0 10,-11 8,-22l-54 9 46 13 0 0zm-35 282c40,52 75,96 87,111l14 -13 63 -117 8 -61 -52 -91 -120 171 0 0z"/>
   <path class="fil5" d="M1144 2251l20 47c0,0 19,33 22,44 2,8 15,93 24,148 4,27 54,291 54,291l-853 0c0,0 42,-260 45,-281 8,-54 24,-149 25,-158 3,-11 22,-44 22,-44l21 -47 310 11 310 -11z"/>
   <path class="fil6" d="M1144 2251l20 47c0,0 19,33 22,44 1,7 10,63 18,114l-757 103c4,-31 8,-53 9,-59 8,-54 24,-149 25,-158 3,-11 22,-44 22,-44l21 -47 310 11 310 -11z"/>
   <path class="fil7" d="M554 2222l0 29c0,0 152,28 280,28 129,0 281,-28 281,-28l0 -29 -281 3 -280 -3z"/>
   <path class="fil8" d="M984 1212l212 86 -9 208c-17,218 -51,539 -51,553 0,13 13,55 28,105l0 0c0,0 4,19 -11,32 -15,14 -38,26 -38,26 -241,28 -320,28 -561,0 0,0 -23,-12 -38,-26 -15,-13 -11,-32 -11,-32l0 0c15,-50 28,-92 28,-105 0,-14 -30,-326 -47,-544l-13 -217 213 -87 0 1c0,0 25,141 149,141 123,0 149,-141 149,-141z"/>
   <path class="fil9" d="M1142 1991c-3,39 -6,64 -6,68 0,13 13,55 28,105l0 0c0,0 4,19 -11,32 -15,14 -38,26 -38,26 -241,28 -320,28 -561,0 0,0 -23,-12 -38,-26 -15,-13 -11,-32 -11,-32l0 0c15,-50 28,-92 28,-105 0,-14 -30,-326 -47,-544l-11 -188c49,-33 93,-61 130,-83l81 -33 0 1c0,0 5,28 22,60 36,241 41,431 133,525 102,104 234,74 234,74 0,0 27,47 67,120z"/>
   <path class="fil4" d="M695 1208c0,0 -14,-7 -19,-6 -5,2 -218,99 -228,105 0,0 37,347 30,420l34 261c0,0 -14,14 -1,29l-94 372c0,0 -3,15 12,20 16,6 290,52 290,52 0,0 29,0 33,-19 5,-18 37,-481 37,-481l-119 -743 25 -10z"/>
   <path class="fil4" d="M974 1208c0,0 14,-7 19,-6 5,2 218,99 227,105 0,0 -36,347 -29,420l-35 261c0,0 15,14 2,29l94 372c0,0 3,15 -12,20 -16,6 -290,52 -290,52 0,0 -29,0 -33,-19 -5,-18 -38,-481 -38,-481l120 -743 -25 -10z"/>
   <path class="fil10" d="M974 1208c0,0 14,-7 19,-6 2,1 25,12 56,26l37 279 -205 445 0 0 118 -734 -25 -10z"/>
   <path class="fil10" d="M695 1208c0,0 -14,-7 -19,-6 -2,1 -25,12 -57,26l-36 279 205 445 0 0 -118 -734 25 -10z"/>
   <path class="fil3" d="M1033 884c2,0 3,1 4,1l0 0 0 0c26,6 46,28 46,56 0,32 -25,58 -57,58 -32,1 -58,-25 -59,-57 0,-18 9,-35 22,-46 -2,17 1,39 23,41l-1 -34c0,-13 13,-19 22,-19z"/>
   <path class="fil3" d="M637 881c-1,1 -2,1 -4,1l0 0 0 0c-26,5 -46,28 -46,55 -1,32 24,59 56,60 32,1 59,-25 59,-57 1,-18 -7,-35 -21,-46 2,17 -1,38 -23,40l1 -33c0,-14 -12,-20 -22,-20z"/>
   <path class="fil2" d="M835 1174c-108,0 -198,-133 -198,-239l0 -139c0,-109 89,-198 198,-198l0 0c109,0 198,89 198,198l0 137c0,115 -79,241 -198,241z"/>
   <path class="fil3" d="M648 729l0 0c1,0 243,-86 248,-80 5,6 37,58 37,58 0,0 -54,-17 -108,39 -54,56 -112,98 -161,97 -48,0 -17,-109 -16,-114z"/>
   <path class="fil3" d="M978 973c-18,0 -32,15 -32,33 0,18 15,33 33,32 18,0 33,-15 32,-33 0,-18 -15,-32 -33,-32z"/>
   <path class="fil3" d="M690 978c-18,1 -32,15 -32,34 1,18 16,32 34,32 18,-1 32,-16 32,-34 -1,-18 -16,-32 -34,-32z"/>
   <path class="fil11" d="M776 853c4,2 6,7 4,11 -2,4 -7,6 -11,4 0,0 -25,-12 -49,4 -4,2 -9,1 -11,-3 -3,-4 -2,-9 2,-12 32,-19 65,-4 65,-4z"/>
   <path class="fil11" d="M972 857c4,2 5,7 3,11 -2,4 -7,6 -11,3 0,0 -24,-13 -49,0 -4,2 -9,0 -11,-4 -3,-4 -1,-9 3,-11 33,-17 65,1 65,1z"/>
   <path class="fil8" d="M786 1032c0,32 26,59 58,59 32,0 59,-26 59,-58l0 0c0,-6 -4,-10 -10,-10l-97 -1c-5,0 -10,4 -10,10l0 0z"/>
   <path class="fil8" d="M807 1078c10,8 23,13 37,13 11,0 22,-3 31,-9 -4,-12 -17,-21 -33,-22 -15,0 -29,7 -35,18z"/>
   <path class="fil8" d="M890 1022l-91 0c-2,10 3,20 9,22 9,3 75,2 79,-3 3,-3 3,-11 3,-19z"/>
   <path class="fil12" d="M848 940c5,12 12,34 11,37 -1,5 -26,6 -32,-1 -5,-5 1,-23 5,-35 7,-17 11,-17 16,-1z"/>
   <path class="fil11" d="M939 900c-14,0 -26,12 -26,26 0,14 12,25 26,25 14,0 25,-11 25,-25 0,-2 0,-4 0,-5l1 0c3,-1 6,-2 9,-4 1,-1 1,-2 1,-4 -1,-1 -3,-1 -4,-1 -3,2 -6,3 -9,3l0 0c3,-1 6,-3 8,-6 1,-1 1,-3 0,-4 -1,-1 -3,-1 -4,0 -2,3 -5,4 -7,5l0 0c2,-1 4,-3 5,-6 1,-1 0,-3 -1,-4 -2,0 -4,0 -4,2 -2,2 -3,3 -5,3 -4,-3 -10,-5 -15,-5zm-208 0c-6,0 -11,2 -15,5 -2,0 -4,-1 -5,-3 -1,-2 -3,-2 -4,-2 -2,1 -2,3 -2,4 2,3 4,5 6,6l0 0c-3,-1 -5,-2 -7,-5 -1,-1 -3,-1 -5,0 -1,1 -1,3 0,4 3,3 6,5 9,6l0 0c-3,0 -6,-1 -9,-3 -2,0 -3,0 -4,1 -1,2 -1,3 1,4 3,2 6,3 9,4l1 0c0,2 0,3 0,5 0,14 11,25 25,25 14,0 26,-11 26,-25 0,-14 -12,-26 -26,-26l0 0z"/>
   <path class="fil13" d="M984 970c0,1 -2,2 -4,2 -1,-1 -2,-3 -2,-4 0,0 47,-79 72,-75l-7 5c-25,22 -59,71 -59,72z"/>
   <path class="fil13" d="M687 968c0,2 2,3 4,3 1,-1 2,-3 2,-4 0,-1 -48,-72 -72,-68l4 2 3 2c24,22 59,65 59,65z"/>
   <path class="fil13" d="M694 1089c2,1 4,-1 4,-2 0,-2 -1,-4 -3,-4l-1 0c-36,-5 -68,-58 -70,-90 -3,-2 -5,-3 -7,-4 2,36 35,95 76,100l1 0z"/>
   <path class="fil13" d="M975 1089c-2,1 -3,-1 -4,-2 0,-2 1,-4 3,-4l1 0c37,-5 75,-58 77,-90 2,-2 5,-3 7,-4 -2,36 -42,95 -83,100l-1 0z"/>
   <path class="fil8" d="M835 954l147 8c0,0 6,2 5,7 0,6 -5,110 -5,110 0,0 0,9 -6,17 -6,8 -52,84 -141,84 -89,0 -136,-76 -141,-84 -6,-8 -6,-17 -6,-17 0,0 -6,-104 -6,-110 0,-5 6,-7 6,-7l147 -8z"/>
   <path class="fil14" d="M835 966l-141 7c1,35 3,70 5,105 0,4 2,9 4,12 4,5 7,10 11,16 8,10 17,19 26,27 27,23 59,36 95,36 36,0 67,-13 94,-36 10,-8 19,-17 26,-27 5,-6 8,-11 12,-16 2,-3 4,-8 4,-12 1,-35 4,-70 5,-105l-141 -7z"/>
   <path class="fil13" d="M971 1068c1,-10 1,-20 2,-30l-97 -6 95 36zm-272 6l0 4c0,4 2,9 4,12 4,5 7,10 11,16 8,10 17,19 26,27 27,23 59,36 95,36 36,0 67,-13 94,-36 10,-8 19,-17 26,-27 5,-6 8,-11 12,-16 1,-1 1,-2 2,-3 0,0 -23,25 -103,25 -79,0 -167,-38 -167,-38l0 0zm-3 -56c0,14 1,28 2,42l130 -51 -132 9 0 0z"/>
   <path class="fil15" d="M637 935c0,0 23,-16 23,-56 0,0 36,-34 34,-70 -3,-36 -44,-84 -44,-84 0,0 -37,23 -50,48 -13,25 4,128 4,128 0,0 25,-19 33,34z"/>
   <path class="fil15" d="M1033 935c0,0 -23,-16 -23,-56 0,0 -37,-34 -34,-70 3,-36 44,-84 44,-84 0,0 36,23 50,48 13,25 -4,128 -4,128 0,0 -25,-19 -33,34z"/>
   <path class="fil16" d="M850 702c-56,16 -102,81 -158,114 41,-13 75,-43 105,-71 18,-17 36,-33 53,-43zm66 5l-1 0c-1,1 -2,1 -4,0 -36,-21 -69,9 -108,45 -40,36 -85,77 -146,79 -6,2 -11,3 -17,4 -104,12 -152,-130 -55,-224 103,-101 330,-116 356,46 0,0 5,35 -25,50l0 0z"/>
   <path class="fil16" d="M907 704c22,28 21,75 37,111 -15,-21 -21,-47 -26,-71 -3,-15 -6,-29 -11,-40zm-34 -20l1 0c0,1 1,1 2,1 25,3 30,29 37,60 6,31 14,67 43,90 2,2 4,5 7,7 46,43 119,-9 105,-89 -15,-85 -120,-172 -189,-103 0,0 -15,16 -6,34l0 0z"/>
   <path class="fil17" d="M1822 954l-33 14c0,0 4,145 -30,245 -33,100 -6,185 48,165 0,0 3,61 49,75 45,14 101,25 101,25l152 9c0,0 145,46 155,-146 0,0 50,-3 50,-69 1,-67 -67,-176 -67,-314 0,-138 -425,-4 -425,-4z"/>
   <path class="fil2" d="M2022 926l0 0c-60,0 -109,84 -109,186l0 100c0,6 -7,9 -7,9l-30 12 2 46 49 82 2 -2c19,54 54,91 93,91l0 0c40,0 75,-37 94,-92l3 3 48 -82 2 -46 -30 -12c0,0 -7,-3 -7,-9l-1 0 0 -100c0,-102 -49,-186 -109,-186z"/>
   <path class="fil3" d="M1913 1195l0 17c0,6 -7,9 -7,9l-30 12 2 46 49 82 2 -2c9,27 23,50 39,66 66,4 119,-13 81,-25 -73,-24 -122,-80 -120,-128 2,-48 20,-52 89,-49 -40,-17 -75,-26 -105,-28z"/>
   <path class="fil3" d="M1913 1119l0 93c111,52 186,0 218,-31l0 -41c-32,-18 -108,-18 -180,-21 -13,0 -25,-1 -38,0z"/>
   <path class="fil18" d="M2403 1327l42 24c0,0 17,13 27,39 11,27 157,494 157,494 0,0 24,94 -25,175 -49,80 -223,300 -223,300l-104 -197 160 -197c0,0 -17,-18 -2,-31l-78 -247 -13 -224 59 -136z"/>
   <path class="fil11" d="M2416 1872l-59 -185 -7 -127 35 -38 31 350zm21 93c0,0 -10,-10 -8,-21l53 9 -45 12 0 0zm34 278c-39,51 -74,96 -85,110l-15 -13 -61 -115 -8 -60 51 -91 118 169 0 0z"/>
   <path class="fil18" d="M1642 1327l-42 24c0,0 -18,13 -28,39 -10,27 -157,494 -157,494 0,0 -24,94 25,175 49,80 223,300 223,300l105 -197 -160 -197c0,0 16,-18 1,-31l78 -247 13 -224 -58 -136z"/>
   <path class="fil11" d="M1629 1872l58 -185 8 -127 -35 -38 -31 350zm-21 93c0,0 9,-10 7,-21l-53 9 46 12 0 0zm-35 278c39,51 74,96 86,110l14 -13 61 -115 8 -60 -51 -91 -118 169 0 0z"/>
   <path class="fil19" d="M2299 2259l18 45c0,0 18,33 20,44 1,8 13,92 21,146 4,27 46,287 46,287l-759 0c0,0 37,-256 40,-277 7,-53 21,-147 22,-156 3,-11 20,-44 20,-44l18 -45 277 10 277 -10z"/>
   <path class="fil20" d="M2299 2259l18 45c0,0 18,33 20,44 1,7 9,62 16,111l-676 101c4,-29 7,-51 8,-56 7,-53 21,-147 22,-156 3,-11 20,-44 20,-44l18 -45 277 10 277 -10z"/>
   <path class="fil8" d="M2169 1233l209 85 -8 206c-17,215 -50,531 -50,545 0,13 12,54 27,103l0 0c0,1 4,19 -11,32 -14,14 -37,25 -37,25 -238,29 -316,29 -554,0 0,0 -22,-11 -37,-25 -14,-13 -11,-31 -11,-32l0 0c15,-49 28,-90 28,-103 0,-14 -30,-321 -46,-537l-13 -214 210 -85 0 0c0,0 25,139 147,139 121,0 146,-139 146,-139z"/>
   <path class="fil9" d="M2326 1999c-4,40 -6,66 -6,70 0,13 12,54 27,103l0 0c0,1 4,19 -11,32 -14,14 -37,25 -37,25 -238,29 -316,29 -554,0 0,0 -22,-11 -37,-25 -14,-13 -11,-31 -11,-32l0 0c15,-49 28,-90 28,-103 0,-14 -30,-321 -46,-537l-11 -183c51,-35 97,-64 134,-86l74 -30 0 0c0,0 6,32 25,65 34,235 40,421 130,513 101,102 231,73 231,73 0,0 26,44 64,115z"/>
   <path class="fil18" d="M1885 1230c0,0 -14,-8 -19,-6 -5,2 -215,97 -224,103 0,0 35,343 29,414l34 258c0,0 -15,13 -2,29l-92 367c0,0 -4,14 11,19 16,6 287,52 287,52 0,0 28,0 32,-19 5,-18 37,-475 37,-475l-118 -732 25 -10z"/>
   <path class="fil18" d="M2160 1230c0,0 14,-8 19,-6 4,2 215,97 224,103 0,0 -36,343 -29,414l-34 258c0,0 14,13 1,29l93 367c0,0 3,14 -12,19 -15,6 -286,52 -286,52 0,0 -28,0 -33,-19 -4,-18 -36,-475 -36,-475l118 -732 -25 -10z"/>
   <path class="fil11" d="M2160 1230c0,0 14,-8 19,-6 1,1 24,11 55,25l37 276 -203 439 0 0 117 -724 -25 -10z"/>
   <path class="fil11" d="M1885 1230c0,0 -14,-8 -19,-6 -2,1 -25,11 -56,25l-36 276 203 439 0 0 -117 -724 25 -10z"/>
   <path class="fil3" d="M2218 910c2,1 3,1 4,1l0 0 0 0c26,6 45,28 45,55 1,32 -25,58 -56,58 -32,0 -57,-25 -58,-56 0,-19 8,-35 22,-46 -2,17 1,38 22,40l0 -33c0,-13 12,-19 21,-19z"/>
   <path class="fil3" d="M1828 908c-2,0 -3,0 -4,0l0 0 0 0c-26,5 -45,28 -46,55 -1,31 24,58 56,58 31,1 57,-24 58,-55 1,-19 -8,-35 -21,-46 2,17 -1,38 -23,40l1 -33c0,-13 -12,-20 -21,-19z"/>
   <path class="fil2" d="M2023 1196c-107,0 -196,-131 -196,-235l0 -138c0,-107 88,-195 196,-195l0 0c107,0 195,88 195,195l0 135c0,114 -78,238 -195,238z"/>
   <polygon class="fil21" points="2185,842 1850,856 1852,806 2010,774 2116,727 "/>
   <path class="fil3" d="M2164 998c-18,0 -32,15 -32,33 1,18 15,32 33,31 18,0 32,-15 32,-32 -1,-18 -15,-32 -33,-32z"/>
   <path class="fil3" d="M1880 1003c-18,0 -32,15 -32,33 1,18 16,32 33,32 18,-1 32,-16 32,-33 0,-18 -15,-32 -33,-32z"/>
   <path class="fil11" d="M1965 880c4,2 5,7 4,11 -2,4 -7,6 -11,4 0,0 -25,-12 -49,3 -3,2 -8,1 -11,-3 -2,-4 -1,-9 3,-11 31,-20 63,-4 64,-4z"/>
   <path class="fil11" d="M2158 883c4,3 5,8 3,12 -2,4 -7,5 -11,3 0,0 -24,-14 -49,-1 -4,2 -9,0 -11,-4 -2,-4 0,-9 4,-11 32,-17 64,1 64,1z"/>
   <path class="fil8" d="M1974 1056c0,32 26,58 58,58 31,0 58,-25 58,-57l0 0c0,-6 -5,-10 -10,-10l-96 -1c-5,0 -10,4 -10,10l0 0z"/>
   <path class="fil8" d="M1995 1101c10,8 23,13 37,13 11,0 21,-3 30,-8 -4,-12 -17,-21 -33,-22 -15,-1 -28,6 -34,17z"/>
   <path class="fil8" d="M2077 1047l-90 -1c-2,10 3,20 10,22 8,3 73,2 77,-3 3,-3 3,-11 3,-18z"/>
   <path class="fil12" d="M2036 965c4,12 11,34 11,37 -1,5 -26,6 -33,-1 -4,-5 2,-23 6,-35 7,-16 10,-17 16,-1z"/>
   <path class="fil11" d="M2125 926c-14,0 -25,11 -25,25 0,14 11,25 25,25 14,0 25,-11 25,-25 0,-1 0,-3 0,-4l1 -1c2,0 6,-1 9,-3 1,-1 1,-3 0,-4 0,-1 -2,-2 -4,-1 -2,2 -5,3 -8,3l0 0c3,-1 6,-3 8,-6 1,-1 1,-3 0,-4 -1,-1 -3,-1 -4,0 -2,3 -5,4 -7,5l0 -1c2,-1 4,-2 5,-5 1,-1 0,-3 -1,-4 -2,-1 -4,0 -4,1 -1,3 -3,4 -5,4 -4,-3 -9,-5 -15,-5zm-205 0c-6,0 -11,2 -15,5 -1,0 -4,-1 -5,-4 -1,-1 -2,-2 -4,-1 -1,1 -2,3 -1,4 1,3 3,5 5,6l0 0c-2,-1 -5,-2 -7,-5 -1,-1 -3,-1 -4,0 -1,1 -1,3 0,4 2,3 5,5 8,6l0 0c-3,0 -6,-1 -9,-3 -1,-1 -3,0 -4,1 0,1 0,3 1,4 3,2 6,3 9,3l1 1c0,1 0,3 0,4 0,14 11,25 25,25 14,0 25,-11 25,-25 0,-14 -11,-25 -25,-25l0 0z"/>
   <path class="fil13" d="M2170 994c-1,2 -2,3 -4,3 -2,-1 -3,-3 -2,-4 0,-1 46,-78 71,-74l-7 5c-25,22 -58,70 -58,70z"/>
   <path class="fil13" d="M1876 993c1,2 3,3 4,3 2,-1 3,-3 3,-4 0,-1 -47,-71 -72,-67l4 1 3 3c24,21 58,64 58,64z"/>
   <path class="fil13" d="M1884 1113c2,0 3,-1 3,-3 1,-2 -1,-3 -2,-4l-2 0c-35,-4 -66,-57 -69,-89 -2,-1 -4,-2 -6,-4 1,36 35,95 75,100l1 0z"/>
   <path class="fil13" d="M2161 1113c-2,0 -4,-1 -4,-3 0,-2 1,-3 3,-4l1 0c36,-4 73,-57 76,-89 2,-1 4,-2 7,-4 -2,36 -42,95 -82,100l-1 0z"/>
   <path class="fil8" d="M2023 979l145 8c0,0 5,2 5,7 0,5 -5,108 -5,108 0,0 0,9 -6,17 -6,8 -51,83 -139,83 -88,0 -134,-75 -140,-83 -5,-8 -6,-17 -6,-17 0,0 -5,-103 -5,-108 0,-5 6,-7 6,-7l145 -8z"/>
   <path class="fil14" d="M2023 991l-140 7c2,34 4,69 5,104 1,3 2,8 4,11 4,5 8,11 12,16 7,9 16,18 25,26 27,23 58,36 94,36 35,0 66,-13 93,-36 9,-8 18,-17 25,-26 5,-5 8,-11 12,-16 2,-3 4,-8 4,-11 1,-35 4,-70 5,-104l-139 -7z"/>
   <path class="fil13" d="M2157 1092c1,-10 1,-20 2,-30l-96 -6 94 36zm-269 5l0 5c1,3 2,8 4,11 4,5 8,11 12,16 7,9 16,18 25,26 27,23 58,36 94,36 35,0 66,-13 93,-36 9,-8 18,-17 25,-26 5,-5 8,-11 12,-16 0,-1 1,-2 1,-3 0,0 -22,25 -101,25 -78,0 -165,-38 -165,-38l0 0zm-3 -54c1,13 2,27 3,40l128 -49 -131 9 0 0z"/>
   <path class="fil7" d="M1838 1028c0,0 2,-72 2,-113 0,0 38,-34 35,-71 -3,-36 -46,-85 -46,-85 0,0 -38,23 -52,49 -24,44 28,167 61,220z"/>
   <path class="fil7" d="M2211 1023c0,0 -2,-67 -6,-108 0,0 -38,-34 -35,-71 3,-36 45,-85 45,-85 0,0 39,23 52,49 37,66 -36,165 -56,215z"/>
   <path class="fil7" d="M1772 842c-11,-201 168,-343 313,-290 28,10 57,61 57,61 0,0 19,-32 62,-12 42,19 85,151 75,252l-128 -11 -47 0c-5,0 -9,-6 -10,-11 -1,-5 -4,-40 -5,-48 -1,-8 -4,-13 -5,-10 -2,2 -3,30 -5,49 -3,18 -14,20 -15,20l-292 0z"/>
   <path class="fil11" d="M646 2063l-63 -200 -8 -137 38 -40 33 377zm60 399c-42,55 -80,103 -92,119l-16 -15 -66 -124 -8 -64 55 -98 127 182 0 0z"/>
   <path class="fil11" d="M1210 1183l-62 30c0,0 -8,96 8,161 16,65 76,66 76,66 0,0 -2,42 8,55 10,14 145,83 383,-4 0,0 6,-3 6,-13 1,-10 -2,-29 -2,-29 0,0 97,-69 99,-111 2,-42 -14,-126 -36,-240 -22,-114 -59,-180 -152,-177 -94,2 -328,262 -328,262z"/>
   <path class="fil2" d="M1692 2468c-10,-72 -7,-148 7,-249 12,-87 19,-156 20,-215 1,-32 16,-77 13,-105 -2,-29 -4,-46 -10,-73 -21,-102 42,-192 42,-192 0,0 -201,-45 -219,-54 -18,-9 -20,-46 -20,-46l-86 -19 -16 0 -86 19c0,0 -2,37 -19,46 -18,9 -220,54 -220,54 0,0 63,90 42,192 -6,27 -8,44 -10,73 -3,28 13,73 13,105 2,59 8,128 20,215 15,101 17,177 7,249l522 0z"/>
   <path class="fil2" d="M1431 1297l0 0c52,0 94,42 94,94l0 180c0,52 -42,94 -94,94l0 0c-52,0 -94,-42 -94,-94l0 -180c0,-52 42,-94 94,-94z"/>
   <path class="fil3" d="M1637 1214c1,0 3,0 4,0l0 0 0 0c27,6 47,30 47,58 1,33 -26,61 -59,61 -33,0 -60,-26 -61,-59 0,-20 9,-37 23,-48 -2,18 1,40 24,42l-1 -34c0,-14 13,-21 23,-20z"/>
   <path class="fil3" d="M1226 1211c-1,0 -2,0 -4,0l0 0 0 0c-27,6 -47,29 -48,58 -1,33 25,60 58,61 34,1 61,-25 62,-58 0,-19 -8,-37 -22,-48 1,18 -2,40 -24,42l1 -35c0,-14 -13,-21 -23,-20z"/>
   <path class="fil2" d="M1702 1733l131 15c0,0 -6,-34 24,8 29,42 176,270 216,366 8,20 15,37 20,53 43,130 -167,331 -279,407 -40,28 -65,24 -64,15l2 -45c31,-34 204,-321 196,-337 -9,-19 -234,-329 -234,-329l-12 -153z"/>
   <path class="fil3" d="M2053 2076c2,4 4,9 6,13l-117 117c-14,-21 -52,-75 -92,-132l203 2z"/>
   <path class="fil2" d="M1431 1514c-112,0 -205,-138 -205,-247l0 -145c0,-113 92,-205 205,-205l0 0c113,0 205,92 205,205l0 142c0,119 -81,250 -205,250z"/>
   <path class="fil3" d="M1226 1254l0 -132c0,-12 1,-23 3,-34 91,-3 209,-8 209,-8 0,0 -15,195 -212,174z"/>
   <path class="fil2" d="M1164 1733l-131 15c0,0 6,-34 -24,8 -29,42 -175,270 -216,366 -8,20 -15,37 -20,53 -43,130 167,331 279,407 40,28 65,24 65,15l-3 -45c-31,-34 -204,-321 -196,-337 10,-19 234,-329 234,-329l12 -153z"/>
   <path class="fil3" d="M813 2076c-2,4 -4,9 -6,13l117 117c14,-21 52,-75 92,-132l-203 2z"/>
   <path class="fil3" d="M2048 2067c3,7 6,14 9,20l-116 116c-19,-28 -56,-80 -95,-134l202 -2z"/>
   <path class="fil18" d="M1707 2408c14,87 57,256 68,373l-702 0c11,-117 54,-286 85,-373l549 0z"/>
   <path class="fil22" d="M1707 2408c9,54 29,139 45,224 -32,-25 -46,-91 -46,-91l-610 94c18,-84 42,-169 61,-224l25 -3 525 0z"/>
   <path class="fil3" d="M1525 1512l0 -26c-27,17 -58,28 -93,28 0,0 0,0 -1,0 -34,0 -66,-13 -94,-33l0 71c-2,11 -7,22 -16,28 1,4 172,-55 204,-68z"/>
   <path class="fil3" d="M1571 1308c-18,1 -32,16 -32,34 1,18 16,32 34,32 18,-1 32,-16 32,-34 -1,-18 -16,-32 -34,-32z"/>
   <path class="fil3" d="M1284 1313c-18,1 -33,16 -32,34 0,18 15,32 33,32 18,-1 32,-15 32,-33 0,-18 -15,-33 -33,-33z"/>
   <path class="fil11" d="M1365 1171c5,2 6,7 5,11 -2,4 -7,6 -11,4 -1,0 -26,-12 -49,3 -4,3 -9,1 -12,-2 -2,-4 -1,-10 3,-12 31,-20 64,-4 64,-4z"/>
   <path class="fil11" d="M1561 1175c4,2 6,7 3,11 -2,4 -7,5 -11,3 0,0 -24,-14 -49,-1 -4,2 -9,1 -11,-3 -2,-4 -1,-9 3,-12 33,-17 65,2 65,2z"/>
   <path class="fil12" d="M1442 1275c4,12 11,34 11,37 -1,5 -26,6 -33,-1 -4,-5 1,-23 6,-35 6,-16 10,-17 16,-1z"/>
   <path class="fil11" d="M1535 1227c-14,0 -25,12 -25,26 0,14 11,25 25,25 14,0 26,-11 26,-25 0,-2 0,-3 -1,-5l1 0c3,0 6,-1 9,-3 2,-1 2,-3 1,-4 -1,-2 -3,-2 -4,-1 -3,2 -6,2 -9,3l0 -1c3,-1 6,-3 9,-6 1,-1 1,-3 -1,-4 -1,-1 -3,-1 -4,1 -2,2 -4,4 -7,4l0 0c2,-1 4,-3 5,-5 1,-2 0,-4 -1,-4 -1,-1 -3,-1 -4,1 -1,2 -3,3 -4,4 -5,-4 -10,-6 -16,-6zm-207 0c-6,0 -12,2 -16,6 -1,-1 -4,-2 -5,-4 -1,-2 -2,-2 -4,-1 -1,0 -2,2 -1,4 1,2 4,4 6,5l-1 0c-2,0 -5,-2 -7,-4 -1,-2 -3,-2 -4,-1 -1,1 -1,3 0,4 2,4 5,5 8,6l0 1c-3,-1 -6,-1 -9,-3 -1,-1 -3,-1 -4,1 -1,1 0,3 1,4 3,2 6,3 9,3l1 0c0,2 0,3 0,5 0,14 11,25 26,25 14,0 25,-11 25,-25 0,-14 -11,-26 -25,-26l0 0z"/>
   <path class="fil13" d="M1577 1305c0,1 -2,2 -4,2 -1,-1 -2,-2 -2,-4 0,0 47,-79 72,-75l-7 5c-25,23 -58,72 -59,72z"/>
   <path class="fil13" d="M1280 1304c1,1 2,2 4,2 2,-1 3,-2 2,-4 0,0 -47,-72 -72,-68l4 2 3 2c25,22 59,66 59,66z"/>
   <path class="fil13" d="M1288 1425c1,0 3,-1 3,-3 0,-2 -1,-4 -3,-4l-1 0c-36,-4 -68,-58 -70,-90 -2,-1 -5,-3 -7,-4 2,36 36,95 76,101l2 0z"/>
   <path class="fil13" d="M1568 1425c-2,0 -3,-1 -3,-3 -1,-2 1,-4 2,-4l2 0c36,-4 74,-58 76,-90 3,-1 5,-3 7,-4 -2,36 -42,95 -83,101l-1 0z"/>
   <path class="fil8" d="M1428 1289l147 8c0,0 6,2 6,7 0,6 -6,110 -6,110 0,0 0,9 -6,17 -5,8 -52,85 -141,85 -89,0 -135,-77 -141,-85 -6,-8 -6,-17 -6,-17 0,0 -5,-104 -5,-110 -1,-5 5,-7 5,-7l147 -8z"/>
   <path class="fil14" d="M1428 1301l-141 7c1,35 4,70 5,105 0,4 2,9 4,12 4,5 8,11 12,16 7,10 16,19 26,27 27,23 58,36 94,36 36,0 68,-13 95,-36 9,-8 18,-17 26,-27 4,-5 7,-11 11,-16 2,-3 4,-8 4,-12 2,-35 4,-70 5,-105l-141 -7z"/>
   <path class="fil13" d="M1565 1404c0,-10 1,-20 1,-30l-97 -7 96 37zm-273 5l0 4c0,4 2,9 4,12 4,5 8,11 12,16 7,10 16,19 26,27 27,23 58,36 94,36 36,0 68,-13 95,-36 9,-8 18,-17 26,-27 4,-5 7,-11 11,-16 1,-1 1,-2 2,-3 0,0 -23,25 -103,25 -79,0 -167,-38 -167,-38l0 0zm-3 -55c1,13 2,27 2,41l130 -51 -132 10 0 0z"/>
   <path class="fil8" d="M1431 1649l10 -11 31 4 88 -64 203 51c-20,136 -66,645 -38,760 0,0 3,11 -2,24 -6,13 -18,34 -18,34l-560 -4c-2,-5 -30,-701 -43,-807l52 -20 149 -38 88 64 30 -4 10 11z"/>
   <polygon class="fil23" points="1454,1689 1458,1708 1504,2180 1431,2303 1359,2180 1404,1708 1409,1689 1431,1700 "/>
   <path class="fil16" d="M1454 1689l4 19 46 472 -73 123c0,0 43,-105 44,-122 2,-16 -25,-467 -33,-471 -8,-4 -24,-4 -24,-4l10 -7 3 1 23 -11z"/>
   <path class="fil23" d="M1404 1713l-21 -47c18,-17 78,-17 96,0l-21 47c-15,-4 -39,-4 -54,0z"/>
   <path class="fil16" d="M1432 1653c19,0 38,5 47,13l-21 47c-6,-2 -13,-3 -20,-3 4,-3 9,-8 9,-9 1,-2 0,-42 -2,-42l-13 -6zm-41 32l-8 -19c7,-6 19,-10 32,-12l-24 31 0 0z"/>
   <path class="fil18" d="M1527 1541c0,0 9,-1 12,0 3,2 13,20 20,28 0,0 9,14 5,26 -4,12 -59,112 -59,112 0,0 -4,6 -10,1 -6,-6 -54,-70 -54,-70l86 -89 0 -8z"/>
   <path class="fil18" d="M1337 1541c0,0 -9,-2 -12,0 -3,1 -13,19 -19,28 0,0 -12,14 -8,26 4,12 59,112 59,112 0,0 4,6 10,1 6,-6 54,-70 54,-70l-84 -89 0 -8z"/>
   <path class="fil8" d="M1763 1629c0,0 62,12 97,58 35,47 210,363 210,363 0,0 5,11 1,17 -4,7 -121,103 -156,112 0,0 -11,1 -18,-5 -7,-7 -143,-206 -143,-206 0,0 -36,-201 9,-339z"/>
   <path class="fil24" d="M1836 2088c-39,-56 -104,-148 -104,-148 0,0 -2,-65 9,-161l95 309z"/>
   <path class="fil8" d="M1178 1610c-22,0 -141,40 -176,87 -35,46 -210,353 -210,353 0,0 -4,11 0,17 4,7 120,103 156,112 0,0 10,1 17,-5 7,-7 144,-206 144,-206 0,0 114,-220 69,-358z"/>
   <path class="fil24" d="M1026 2088c39,-56 96,-139 96,-139 0,0 2,-70 -1,-170l-95 309z"/>
   <path class="fil11" d="M1225 1243l0 29c10,0 22,-15 22,-27 0,-13 0,-27 0,-27 0,0 23,-36 23,-75 0,-38 9,-61 42,-61 33,0 65,17 119,17 54,0 87,-17 120,-17 32,0 41,23 41,61 0,39 23,75 23,75 0,0 0,14 0,27 0,12 12,27 22,27l0 -29c0,-20 7,-28 7,-28 0,0 0,-1 0,-86 0,-293 -426,-293 -426,0 0,85 0,86 0,86 0,0 8,8 7,28z"/>
   <path class="fil11" d="M1432 1050c-16,105 -61,214 -236,176l-48 -13c0,0 17,-104 64,-189 47,-85 178,-170 225,-180 46,-10 97,52 103,64 6,12 6,37 3,44 -75,51 -94,-16 -111,98z"/>
   <path class="fil2" d="M1051 2583c38,31 69,37 86,-16 16,-54 21,-57 21,-57 0,0 24,16 37,18 13,3 15,-9 12,-13 -3,-5 13,2 16,-5 3,-8 -7,-19 -7,-19 0,0 11,-9 7,-17 -4,-8 -81,-59 -94,-46 -13,12 -45,97 -45,97l-33 58z"/>
   <path class="fil3" d="M1208 2510c1,0 1,2 0,3 0,1 -2,1 -3,0 -13,-8 -22,-14 -29,-19 -21,-14 -22,-15 -26,-10 0,1 -2,2 -3,1 -1,-1 -1,-2 0,-3 5,-9 6,-8 31,8 7,5 17,12 30,20z"/>
   <path class="fil3" d="M1218 2488c2,1 2,2 1,3 -1,1 -2,2 -3,1l-11 -7c-42,-27 -56,-36 -60,-29 -1,1 -2,1 -3,0 -1,0 -1,-2 -1,-3 7,-10 21,0 66,28l11 7z"/>
   <path class="fil3" d="M1095 2496c0,-2 1,-2 3,-2 1,1 1,2 1,3l-20 50c-1,1 -2,2 -3,1 -1,0 -2,-1 -1,-2l20 -50z"/>
   <path class="fil2" d="M1815 2583c-38,31 -69,37 -85,-16 -17,-54 -22,-57 -22,-57 0,0 -24,16 -37,18 -13,3 -15,-9 -12,-13 3,-5 -13,2 -16,-5 -3,-8 7,-19 7,-19 0,0 -11,-9 -7,-17 4,-8 81,-59 94,-46 13,12 45,97 45,97l33 58z"/>
   <path class="fil3" d="M1658 2510c-1,0 -1,2 0,3 0,1 2,1 3,0 13,-8 22,-14 30,-19 21,-14 22,-15 25,-10 0,1 2,2 3,1 1,-1 1,-2 1,-3 -6,-9 -7,-8 -32,8 -7,5 -17,12 -30,20z"/>
   <path class="fil3" d="M1648 2488c-1,1 -2,2 -1,3 1,1 2,2 3,1l11 -7c42,-27 56,-36 60,-29 1,1 2,1 3,0 1,0 2,-2 1,-3 -7,-10 -21,0 -66,28l-11 7z"/>
   <path class="fil3" d="M1769 2493c-1,-1 -2,-2 -3,-1 -1,0 -2,1 -2,2l23 53c1,1 2,2 3,1 1,0 2,-1 1,-2l-22 -53z"/>
   <path class="fil25" d="M2883 1206c0,0 -72,19 -113,108 -41,88 -140,368 -165,447 -25,78 65,414 181,593l151 0c0,0 -146,-448 -152,-491 -7,-43 138,-294 138,-294 40,-125 38,-251 -40,-363z"/>
   <path class="fil3" d="M3282 765l0 0c67,0 122,95 122,210l0 170c0,115 -55,209 -122,209l0 0c-68,0 -123,-94 -123,-209l0 -170c0,-115 55,-210 123,-210z"/>
   <path class="fil25" d="M3684 1206c0,0 72,19 113,108 41,88 140,368 165,447 25,78 -65,414 -181,593l-151 0c0,0 146,-448 152,-491 7,-43 -138,-294 -138,-294 -40,-125 -38,-251 40,-363z"/>
   <path class="fil8" d="M3314 1195l-20 2 -10 7 -11 -7 -20 -2 -116 -92 -254 103 -13 243c19,242 79,630 79,649 0,18 -40,150 -65,230l799 0c-25,-80 -65,-212 -65,-230 0,-19 60,-407 79,-649l-13 -243 -254 -103 -116 92z"/>
   <polygon class="fil23" points="3309,1259 3314,1288 3370,2009 3282,2196 3193,2009 3249,1288 3254,1259 3282,1276 "/>
   <path class="fil16" d="M3309 1259l5 29 56 721 -88 187c0,0 51,-161 53,-186 2,-25 -31,-713 -41,-719 -9,-7 -29,-6 -29,-6l13 -11 4 2 27 -17z"/>
   <path class="fil13" d="M3257 1199l12 -2c0,0 3,2 3,6 0,4 1,15 1,15l-10 2c0,0 -18,1 -17,0 0,0 11,-21 11,-21z"/>
   <path class="fil13" d="M3306 1199l-12 -2c0,0 -3,2 -3,6 0,4 0,15 0,15l9 2c0,0 18,1 17,0 0,0 -11,-21 -11,-21z"/>
   <path class="fil23" d="M3249 1288l-26 -57c22,-21 95,-21 117,0l-26 57c-18,-5 -47,-5 -65,0z"/>
   <path class="fil16" d="M3282 1215c24,0 47,6 58,16l-26 57c-7,-2 -15,-3 -24,-4 4,-4 11,-9 11,-10 0,-2 0,-51 -2,-52l-17 -7zm-49 39l-10 -23c8,-8 22,-12 39,-15l-29 38 0 0z"/>
   <path class="fil14" d="M3404 1065c0,0 10,-2 14,0 4,1 16,45 24,55 0,0 7,9 2,24 -6,15 -72,137 -72,137 0,0 -5,7 -13,0 -7,-6 -65,-84 -65,-84l110 -122 0 -10z"/>
   <path class="fil14" d="M3159 1062c0,0 -10,-1 -14,0 -4,2 -16,48 -24,58 0,0 -7,9 -2,24 6,15 72,137 72,137 0,0 5,7 13,0 7,-6 65,-84 65,-84l-110 -125 0 -10z"/>
   <path class="fil26" d="M3504 731c1,0 3,0 5,0l0 0 0 0c29,7 52,33 52,65 1,37 -29,67 -66,67 -37,1 -67,-29 -67,-66 -1,-21 9,-40 25,-52 -2,19 1,44 26,46l0 -38c-1,-16 14,-23 25,-22z"/>
   <path class="fil26" d="M3064 731c-1,0 -3,0 -5,0l0 0 0 0c-29,6 -52,32 -53,64 -1,37 28,67 65,68 37,1 67,-28 68,-65 1,-21 -9,-40 -24,-53 1,20 -2,44 -27,46l1 -38c0,-16 -14,-23 -25,-22z"/>
   <path class="fil2" d="M3284 1065c-125,0 -229,-154 -229,-275l0 -161c0,-126 103,-229 228,-229l1 0c125,0 228,103 228,229l0 157c0,133 -91,279 -228,279z"/>
   <path class="fil3" d="M3440 784c-21,0 -38,18 -38,39 1,21 18,38 40,38 21,-1 38,-18 37,-40 0,-21 -18,-38 -39,-37z"/>
   <path class="fil3" d="M3125 790c-21,0 -38,18 -37,39 0,21 18,38 39,38 21,-1 38,-18 38,-39 -1,-22 -18,-39 -40,-38z"/>
   <path class="fil11" d="M3208 678c4,2 7,8 4,12 -2,5 -7,7 -12,5 0,0 -29,-13 -57,4 -4,3 -10,1 -13,-3 -3,-5 -1,-11 3,-13 36,-23 75,-5 75,-5z"/>
   <path class="fil11" d="M3433 682c5,3 7,8 4,13 -2,5 -8,6 -13,4 0,0 -28,-16 -56,-1 -5,2 -11,0 -13,-4 -3,-5 -1,-11 4,-13 38,-20 74,1 74,1z"/>
   <path class="fil27" d="M3290 795c4,11 11,32 11,36 -1,5 -26,9 -33,3 -5,-4 1,-23 6,-36 6,-17 10,-19 16,-3z"/>
   <path class="fil28" d="M3331 886c0,27 -21,48 -47,48 -27,0 -48,-21 -48,-48 0,-5 3,-9 8,-9l79 0c5,0 8,4 8,9z"/>
   <path class="fil8" d="M3249 877l69 0 0 8c0,5 -4,8 -8,8l-53 0c-4,0 -8,-3 -8,-8l0 -8z"/>
   <path class="fil29" d="M3318 919c-8,9 -21,15 -34,15 -14,0 -27,-6 -35,-15 8,-9 21,-15 35,-15 13,0 26,6 34,15z"/>
   <path class="fil11" d="M3172 778c15,0 27,-12 27,-27 0,-15 -12,-28 -27,-28 -15,0 -28,13 -28,28 0,15 13,27 28,27z"/>
   <path class="fil11" d="M3395 778c15,0 28,-12 28,-27 0,-15 -13,-28 -28,-28 -15,0 -27,13 -27,28 0,15 12,27 27,27z"/>
   <path class="fil13" d="M3461 829c-1,2 -3,3 -5,2 -1,0 -2,-2 -2,-4 0,0 18,-60 48,-84l2 7c-27,24 -43,79 -43,79z"/>
   <path class="fil13" d="M3452 966c-2,0 -3,-1 -3,-3 -1,-2 1,-4 3,-4l1 0c21,-3 37,-22 49,-45 9,-18 14,-38 15,-55 3,-1 5,-2 7,-3 0,19 -6,41 -16,61 -12,25 -31,46 -54,49l-2 0z"/>
   <path class="fil13" d="M3106 829c1,2 3,3 5,2 1,0 2,-2 2,-4 0,0 -18,-60 -48,-84l-2 7c27,24 43,79 43,79z"/>
   <path class="fil13" d="M3115 966c2,0 3,-1 4,-3 0,-2 -2,-4 -4,-4l-1 0c-20,-3 -37,-22 -49,-45 -9,-18 -14,-38 -15,-55 -3,-1 -5,-2 -7,-3 0,19 6,41 16,61 12,25 31,46 54,49l2 0z"/>
   <path class="fil8" d="M3283 802l178 10c0,0 7,2 7,8 0,7 -6,133 -6,133 0,0 -1,11 -8,21 -7,10 -63,102 -171,102 -107,0 -163,-92 -170,-102 -7,-10 -8,-21 -8,-21 0,0 -6,-126 -6,-133 0,-6 7,-8 7,-8l177 -10z"/>
   <path class="fil14" d="M3284 816l-171 9c1,42 4,85 6,127 0,5 2,10 5,14 4,7 9,13 14,20 9,11 20,22 31,32 33,28 71,44 115,44 43,0 81,-16 114,-44 11,-10 22,-21 31,-32 5,-7 10,-13 14,-20 3,-4 5,-9 5,-14 2,-42 5,-85 6,-127l-170 -9z"/>
   <path class="fil13" d="M3449 940c0,-12 1,-24 2,-36l-118 -8 116 44zm-330 7l0 5c0,5 2,10 5,14 4,7 9,13 14,20 9,11 20,22 31,32 33,28 71,44 115,44 43,0 81,-16 114,-44 11,-10 22,-21 31,-32 5,-7 10,-13 14,-20 1,-1 2,-2 2,-3 0,0 -27,30 -124,30 -96,0 -202,-46 -202,-46l0 0zm-4 -67c1,17 2,33 3,50l157 -61 -160 11 0 0z"/>
   <path class="fil18" d="M3283 395c56,0 111,17 157,49 71,50 86,123 86,177 0,54 0,116 0,116 0,0 -14,18 -14,64 -21,0 -23,-21 -23,-43 0,-22 0,-38 0,-38 -44,0 -50,-120 -41,-134 6,-12 28,-43 35,-52 0,0 3,-4 0,-6 -3,-2 -6,1 -18,14 -13,13 -28,27 -36,31 -11,5 -47,-2 -65,-2l-161 0c-18,0 -54,7 -65,2 -8,-4 -23,-18 -36,-31 -12,-13 -15,-16 -18,-14 -3,2 0,6 0,6 7,9 29,40 35,52 9,14 3,134 -41,134 0,0 0,16 0,38 0,22 -2,43 -23,43 0,-46 -14,-64 -14,-64 0,0 0,-62 0,-116 0,-54 15,-127 86,-177 46,-32 101,-49 156,-49z"/>
   <path class="fil11" d="M3084 528c3,-2 6,1 18,14 13,13 28,27 36,31 11,5 47,-2 65,-2l161 0c18,0 54,7 65,2 8,-4 23,-18 36,-31 12,-13 15,-16 18,-14 3,2 0,6 0,6l4 -5 14 -16c-13,-25 -33,-49 -61,-69 -46,-32 -101,-49 -157,-49 -55,0 -110,17 -156,49 -28,20 -48,44 -61,69l14 16 4 5c0,0 -3,-4 0,-6z"/>
   <polygon class="fil11" points="3683,2328 3023,2328 3023,2776 3641,2776 "/>
   <path class="fil11" d="M2495 1424c0,0 6,104 -33,197 0,0 -7,23 9,37 16,14 125,52 264,52 140,0 249,-38 265,-52 15,-14 8,-37 8,-37 -39,-93 -32,-197 -32,-197l-241 -24 -240 24z"/>
   <path class="fil2" d="M2433 2776c21,-114 6,-219 -16,-375 -42,-81 -74,-229 -52,-336 22,-106 25,-259 25,-259 0,0 209,-46 227,-55 19,-10 21,-49 21,-49l97 -21 98 21c0,0 2,39 20,49 19,9 228,55 228,55 0,0 3,153 25,259 22,107 -10,255 -52,336 -22,156 -38,261 -16,375l-605 0z"/>
   <path class="fil2" d="M2735 1456l0 0c54,0 98,44 98,98l0 187c0,54 -44,98 -98,98l0 0c-53,0 -97,-44 -97,-98l0 -187c0,-54 44,-98 97,-98z"/>
   <path class="fil3" d="M2949 1370c1,0 3,1 4,1l0 0 0 0c28,6 49,30 49,60 1,34 -27,63 -61,63 -35,0 -63,-27 -63,-62 -1,-20 9,-37 23,-49 -2,18 1,41 25,44l-1 -36c0,-15 14,-21 24,-21z"/>
   <path class="fil3" d="M2523 1367c-2,0 -3,1 -5,1l0 0 0 0c-28,5 -49,30 -50,59 0,35 27,63 61,64 34,1 63,-26 64,-61 0,-19 -9,-38 -23,-49 2,18 -1,41 -25,43l1 -36c0,-14 -13,-21 -23,-21z"/>
   <path class="fil2" d="M2735 1682c-116,0 -213,-144 -213,-257l0 -150c0,-117 96,-213 213,-213l0 0c118,0 213,96 213,213l0 147c0,124 -84,260 -213,260z"/>
   <path class="fil3" d="M2545 1179c13,-25 29,-46 50,-64l242 33c0,0 87,61 111,108 0,6 0,12 0,19l0 16c-5,6 -14,11 -28,15 -108,24 -183,-61 -183,-61 0,0 71,3 -24,33 -96,30 -160,-57 -160,-57l-8 -42z"/>
   <path class="fil3" d="M2889 1466c-19,0 -34,16 -34,35 0,20 16,35 36,35 19,0 35,-17 34,-36 0,-19 -16,-35 -36,-34z"/>
   <path class="fil3" d="M2580 1471c-19,1 -35,17 -35,36 1,19 17,35 36,34 20,0 35,-16 35,-35 -1,-20 -17,-35 -36,-35z"/>
   <path class="fil11" d="M2672 1318c4,2 6,7 4,12 -2,4 -7,6 -11,4 0,0 -27,-13 -53,3 -4,3 -10,2 -12,-2 -3,-5 -2,-10 2,-13 34,-21 70,-4 70,-4z"/>
   <path class="fil11" d="M2883 1322c4,2 6,8 3,12 -2,4 -8,6 -12,3 0,0 -26,-15 -53,-1 -4,3 -10,1 -12,-3 -2,-5 0,-10 4,-12 36,-19 70,1 70,1z"/>
   <path class="fil8" d="M2683 1529c-1,34 27,63 62,63 35,1 63,-27 64,-62l0 0c0,-6 -5,-11 -11,-11l-104 -1c-6,0 -11,5 -11,11l0 0z"/>
   <path class="fil8" d="M2706 1578c10,9 24,14 39,14 12,0 24,-3 34,-9 -5,-13 -19,-23 -36,-24 -17,0 -31,7 -37,19z"/>
   <path class="fil8" d="M2794 1519l-98 -1c-1,11 4,22 11,24 9,3 80,2 85,-4 2,-2 3,-11 2,-19z"/>
   <path class="fil12" d="M2750 1430c4,13 12,36 12,40 -1,5 -28,6 -36,-1 -4,-6 2,-25 7,-38 7,-18 11,-19 17,-1z"/>
   <path class="fil8" d="M2967 1780l-42 567 86 2c0,0 17,274 48,427l-645 0c31,-153 48,-427 48,-427l87 -2 -42 -567c123,201 337,201 460,0z"/>
   <path class="fil9" d="M2651 2776l-237 0c31,-153 48,-427 48,-427l87 -2 -34 -456c29,-5 55,-9 77,-12 23,17 47,30 71,39 -5,812 -12,854 -12,854l0 4z"/>
   <path class="fil9" d="M2958 1891l-33 456 86 2c0,0 17,274 48,427l-237 0 0 -4c0,0 -7,-42 -12,-854 25,-9 48,-22 71,-39 22,3 48,7 77,12z"/>
   <path class="fil16" d="M2838 1849c0,0 -11,-13 -15,-23 -3,-9 -2,-16 9,-26 10,-11 51,-49 59,-56 8,-7 16,-4 20,0 4,5 20,24 20,24 0,0 -27,50 -93,81z"/>
   <path class="fil23" d="M2838 1849c0,0 -5,15 -5,36 0,20 7,311 12,457 5,145 7,383 7,401 0,17 9,23 23,21 14,-2 190,-41 249,-55 0,0 23,-13 23,-37 0,-24 -27,-451 -27,-451 0,0 -55,-286 36,-368 0,0 -9,-16 -27,-29 -18,-14 -198,-56 -198,-56l-93 81z"/>
   <path class="fil16" d="M2636 1849c0,0 10,-13 14,-23 4,-9 2,-16 -8,-26 -11,-11 -52,-49 -59,-56 -8,-7 -16,-4 -20,0 -5,5 -20,24 -20,24 0,0 27,50 93,81z"/>
   <path class="fil23" d="M2636 1849c0,0 4,15 4,36 0,20 -7,311 -12,457 -5,145 -7,383 -7,401 0,17 -8,23 -23,21 -14,-2 -189,-41 -249,-55 0,0 -23,-13 -23,-37 0,-24 28,-451 28,-451 0,0 54,-286 -36,-368 0,0 8,-16 26,-29 18,-14 199,-56 199,-56l93 81z"/>
   <path class="fil3" d="M2833 1699l0 -47c-28,19 -60,30 -96,30 -1,0 -1,0 -2,0 0,0 -1,0 -1,0 -35,-1 -67,-14 -96,-35l0 57c-1,7 -4,38 -21,47 -2,1 -10,3 -20,6 2,2 12,13 15,15l221 -73z"/>
   <path class="fil11" d="M2522 1418c0,0 49,-19 29,-76 0,0 54,-36 41,-133 7,24 80,109 163,83 51,-16 24,-56 24,-56 0,0 42,52 118,45 0,0 -20,62 33,76 0,0 -6,58 18,62 0,0 5,-50 27,-38 0,0 33,-156 18,-241 -14,-84 -235,-153 -299,-153 -63,0 -168,75 -175,131 0,0 -70,16 -74,54 -5,38 40,214 40,214 0,0 37,-12 37,32z"/>
   <path class="fil11" d="M2847 1387c-15,0 -28,12 -28,28 0,15 13,27 28,27 15,0 27,-12 27,-27 0,-2 0,-4 0,-5l1 -1c3,0 6,-1 10,-3 1,-1 2,-3 1,-5 -1,-1 -3,-2 -5,-1 -3,2 -6,3 -9,3l0 0c3,-1 6,-3 9,-6 1,-2 1,-4 0,-5 -2,-1 -4,-1 -5,1 -2,3 -5,4 -7,5l-1 -1c3,-1 5,-3 6,-5 1,-2 0,-4 -1,-5 -2,0 -4,0 -5,2 -1,2 -3,3 -4,4 -5,-4 -11,-6 -17,-6zm-223 0c-7,0 -12,2 -17,6 -2,-1 -4,-2 -5,-4 -1,-2 -3,-2 -4,-2 -2,1 -3,3 -2,5 2,3 4,4 6,6l0 0c-3,-1 -6,-2 -8,-5 -1,-2 -3,-2 -4,-1 -2,1 -2,3 -1,5 3,3 6,5 10,6l-1 0c-3,0 -6,-1 -9,-3 -2,-1 -3,0 -4,1 -1,2 -1,4 1,5 3,2 6,3 9,3l2 1c-1,1 -1,3 -1,5 0,15 12,27 28,27 15,0 27,-12 27,-27 0,-16 -12,-28 -27,-28l0 0z"/>
   <path class="fil13" d="M2896 1462c-1,2 -2,3 -4,2 -2,0 -3,-2 -3,-4 0,0 51,-85 78,-81l-8 6c-27,24 -63,77 -63,77z"/>
   <path class="fil13" d="M2576 1461c1,1 2,3 4,2 2,-1 3,-3 3,-4 0,-1 -51,-77 -78,-73l4 2 3 2c27,24 64,70 64,71z"/>
   <path class="fil13" d="M2584 1591c2,0 4,-1 4,-3 0,-2 -1,-4 -3,-4l-1 0c-39,-5 -73,-63 -76,-97 -2,-2 -5,-3 -7,-5 2,39 38,103 82,109l1 0z"/>
   <path class="fil13" d="M2886 1591c-2,0 -4,-1 -4,-3 0,-2 1,-4 3,-4l1 0c39,-5 80,-63 83,-97 3,-2 5,-3 7,-5 -1,39 -45,103 -89,109l-1 0z"/>
   <path class="fil8" d="M2735 1445l158 9c0,0 7,2 7,7 -1,6 -6,118 -6,118 0,0 0,10 -7,19 -6,9 -56,91 -152,91 -96,0 -145,-82 -152,-91 -6,-9 -6,-19 -6,-19 0,0 -6,-112 -6,-118 0,-5 6,-7 6,-7l158 -9z"/>
   <path class="fil14" d="M2735 1457l-152 9c2,37 4,75 6,113 0,4 2,9 4,12 4,6 8,12 13,17 8,11 17,21 28,29 29,25 63,40 101,40 39,0 73,-15 102,-40 10,-8 20,-18 28,-29 4,-5 8,-11 12,-17 3,-3 4,-8 5,-12 1,-38 4,-76 5,-113l-152 -9z"/>
   <path class="fil13" d="M2882 1568c1,-11 1,-21 2,-32l-105 -8 103 40zm-293 6l0 5c0,4 2,9 4,12 4,6 8,12 13,17 8,11 17,21 28,29 29,25 63,40 101,40 39,0 73,-15 102,-40 10,-8 20,-18 28,-29 4,-5 8,-11 12,-17 1,-1 2,-2 2,-3 0,0 -24,27 -110,27 -86,0 -180,-41 -180,-41l0 0zm-3 -60c0,15 1,30 2,45l140 -54 -142 9 0 0z"/>
   <path class="fil16" d="M2344 1824c0,0 -50,16 -73,64 -24,47 -191,432 -199,474 -7,39 -21,153 52,414l202 0c-8,-34 -52,-313 -59,-321l88 -239c0,0 103,-288 -11,-392z"/>
   <path class="fil16" d="M3129 1824c0,0 50,16 74,64 23,47 190,432 198,474 8,39 21,153 -51,414l-203 0c8,-34 53,-313 60,-321l-88 -239c0,0 -103,-288 10,-392z"/>
   <path class="fil3" d="M3939 1212l0 0c67,0 123,94 123,209l0 170c0,115 -56,210 -123,210l0 0c-67,0 -122,-95 -122,-210l0 -170c0,-115 55,-209 122,-209z"/>
   <path class="fil4" d="M4326 1628c0,0 72,19 113,108 41,88 141,368 166,447 24,78 -66,414 -181,593l-152 0c0,0 146,-448 153,-491 6,-43 -139,-294 -139,-294 -40,-125 -38,-251 40,-363z"/>
   <path class="fil30" d="M4604 2276c-19,136 -92,363 -180,500l-95 0c-15,-21 -25,-36 -25,-36l14 -107c169,175 267,-250 286,-357z"/>
   <path class="fil11" d="M3971 1641l-20 3 -12 8 -12 -8 -20 -3 -117 -91 -253 102 -13 244c19,242 76,630 76,648 0,19 -41,150 -66,230l807 0c-25,-80 -65,-211 -65,-230 0,-18 59,-406 78,-648l-12 -244 -254 -102 -117 91z"/>
   <polygon class="fil23" points="3967,1705 3972,1734 4027,2455 3939,2643 3851,2455 3906,1734 3912,1705 3939,1723 "/>
   <path class="fil16" d="M3966 1705l6 29 55 721 -88 188c0,0 52,-162 54,-187 2,-25 -31,-712 -41,-719 -10,-6 -29,-6 -29,-6l12 -11 4 3 27 -18z"/>
   <path class="fil11" d="M3915 1646l12 -2c0,0 2,2 3,6 0,3 0,14 0,14l-9 3c0,0 -18,1 -18,0 0,-1 12,-21 12,-21z"/>
   <path class="fil11" d="M3963 1646l-12 -2c0,0 -2,2 -2,6 -1,3 -1,14 -1,14l9 3c0,0 18,1 18,0 0,-1 -12,-21 -12,-21z"/>
   <path class="fil23" d="M3906 1734l-25 -56c22,-21 94,-21 117,0l-26 56c-18,-4 -47,-4 -66,0z"/>
   <path class="fil16" d="M3940 1662c23,0 47,5 58,16l-26 56c-7,-2 -16,-3 -25,-3 5,-4 12,-9 12,-11 0,-2 0,-51 -2,-51l-17 -7zm-49 38l-10 -22c8,-8 22,-13 38,-15l-28 37 0 0z"/>
   <path class="fil18" d="M4062 1501c0,0 10,-2 14,0 3,1 30,75 25,90 -5,15 -72,137 -72,137 0,0 -4,6 -12,0 -8,-6 -66,-84 -66,-84l111 -133 0 -10z"/>
   <path class="fil4" d="M4098 1545l224 81c5,2 52,20 57,88 3,32 -19,181 -38,356 -23,216 -43,462 -43,474 0,23 40,152 65,232l-327 0 57 -1222c0,0 0,-7 5,-9z"/>
   <path class="fil18" d="M3817 1500c0,0 -11,-1 -14,0 -4,2 -16,56 -24,67 0,0 -7,9 -2,24 5,15 72,137 72,137 0,0 5,6 12,0 8,-6 66,-84 66,-84l-110 -134 0 -10z"/>
   <path class="fil4" d="M3780 1552l-224 74c-5,2 -51,20 -57,88 -3,32 23,189 42,369 23,211 40,449 40,461 0,23 -41,152 -66,232l327 0 -62 -1188c0,0 5,-34 0,-36z"/>
   <path class="fil30" d="M4372 1652c-20,58 -78,249 -23,447 0,1 0,2 -2,3 -3,-5 -5,-11 -8,-16 -50,-196 8,-384 27,-438 2,1 4,3 6,4z"/>
   <path class="fil4" d="M3556 1628c0,0 -72,19 -113,108 -41,88 -140,368 -165,447 -25,78 65,414 181,593l151 0c0,0 -146,-448 -152,-491 -7,-43 138,-294 138,-294 40,-125 38,-251 -40,-363z"/>
   <path class="fil30" d="M3278 2276c19,136 93,363 181,500l69 0c2,-2 29,-143 30,-157 -27,19 -50,41 -110,21 -76,-25 -150,-254 -170,-364z"/>
   <path class="fil30" d="M3460 2298c-1,-6 -2,-10 -2,-13 -4,-25 39,-118 80,-194 6,-12 11,115 17,105 -2,-25 3,-182 3,-184 -2,-7 -102,196 -107,212 -6,16 9,74 9,74l0 0z"/>
   <path class="fil30" d="M3510 1652c21,58 78,249 23,447 0,1 1,2 2,3 3,-5 6,-11 8,-16 50,-196 -8,-384 -27,-438 -2,1 -4,3 -6,4z"/>
   <path class="fil30" d="M4100 1547l59 23c16,36 73,162 70,166 -3,5 -88,20 -88,20 0,0 65,27 67,28 3,2 6,5 5,14 -1,8 -134,598 -169,753l51 -995c0,0 0,-6 5,-9z"/>
   <path class="fil31" d="M4106 1738l85 31c0,0 9,4 8,10 0,6 -154,739 -154,739l28 -773 33 -7z"/>
   <path class="fil32" d="M4055 2236l18 -491 5 -1c-9,200 -23,493 -23,493l0 -1z"/>
   <path class="fil8" d="M4095 1544l45 16c0,0 4,1 5,5 1,5 62,148 64,153 1,5 -3,11 -11,13 -8,3 -126,35 -126,35l17 -216c0,0 1,-6 6,-6z"/>
   <path class="fil30" d="M3774 1551l-55 19c-16,36 -72,162 -70,166 3,5 88,20 88,20 0,0 -65,27 -67,28 -2,2 -6,5 -5,14 2,8 134,598 169,753l-58 -975c0,0 3,-23 -2,-25z"/>
   <path class="fil31" d="M3773 1738l-86 31c0,0 -9,4 -8,10 0,6 154,739 154,739l-28 -773 -32 -7z"/>
   <path class="fil32" d="M3823 2236l-17 -491 -6 -1c10,200 23,493 23,493l0 -1z"/>
   <path class="fil8" d="M3785 1547l-46 13c0,0 -4,1 -6,5 -1,5 -62,148 -64,153 -1,5 3,11 11,13 9,3 126,35 126,35 0,0 -18,-170 -21,-219z"/>
   <path class="fil26" d="M4161 1177c2,1 4,1 5,1l0 0 0 0c30,7 52,33 53,65 0,36 -29,67 -66,67 -37,0 -67,-29 -68,-66 0,-21 10,-40 25,-53 -1,20 2,44 27,47l-1 -39c0,-15 15,-22 25,-22z"/>
   <path class="fil26" d="M3722 1177c-2,0 -3,1 -5,1l0 0 0 0c-30,6 -53,32 -53,64 -1,36 28,67 64,68 37,1 68,-28 69,-65 0,-21 -9,-41 -24,-53 1,20 -2,44 -27,46l1 -38c0,-16 -14,-23 -25,-23z"/>
   <path class="fil2" d="M3941 1511c-124,0 -228,-153 -228,-275l0 -161c0,-125 103,-228 228,-228l0 0c126,0 228,103 228,228l0 158c0,133 -90,278 -228,278z"/>
   <path class="fil3" d="M3715 1027c17,-109 112,-194 226,-194l0 0c110,0 203,80 224,184 -32,0 -67,40 -67,40 -213,101 -345,1 -345,1 -15,-10 -27,-20 -38,-31z"/>
   <path class="fil3" d="M4098 1230c-21,1 -38,18 -38,40 0,21 18,38 39,37 22,0 38,-18 38,-39 0,-21 -18,-38 -39,-38z"/>
   <path class="fil3" d="M3783 1237c-21,0 -38,17 -38,39 1,21 18,38 39,37 22,0 39,-17 38,-39 0,-21 -18,-38 -39,-37z"/>
   <path class="fil11" d="M3865 1124c5,3 7,8 5,13 -2,5 -8,7 -13,5 0,0 -28,-14 -56,4 -5,2 -10,1 -13,-3 -3,-5 -2,-11 3,-14 36,-23 74,-5 74,-5z"/>
   <path class="fil11" d="M4091 1129c5,2 6,8 4,13 -3,4 -9,6 -13,3 0,0 -28,-16 -57,0 -4,2 -10,0 -13,-5 -2,-4 0,-10 4,-13 38,-19 75,2 75,2z"/>
   <path class="fil27" d="M3947 1242c5,11 12,32 11,35 -1,5 -26,10 -32,3 -5,-4 1,-23 5,-35 7,-18 11,-19 16,-3z"/>
   <path class="fil28" d="M3989 1333c0,26 -21,48 -48,48 -26,0 -48,-22 -48,-48 0,-5 4,-9 9,-9l78 0c5,0 9,4 9,9z"/>
   <path class="fil8" d="M3907 1324l68 0 0 8c0,4 -3,8 -7,8l-53 0c-5,0 -8,-4 -8,-8l0 -8z"/>
   <path class="fil29" d="M3976 1366c-9,9 -21,15 -35,15 -14,0 -26,-6 -35,-15 9,-9 21,-15 35,-15 14,0 26,6 35,15z"/>
   <path class="fil11" d="M3829 1225c16,0 28,-12 28,-27 0,-16 -12,-28 -28,-28 -15,0 -27,12 -27,28 0,15 12,27 27,27z"/>
   <path class="fil11" d="M4053 1225c15,0 27,-12 27,-27 0,-16 -12,-28 -27,-28 -15,0 -28,12 -28,28 0,15 13,27 28,27z"/>
   <path class="fil11" d="M3713 1230l22 -89c0,0 71,-52 46,-125 -26,-73 -30,-65 -30,-65 0,0 -95,42 -53,235l15 44z"/>
   <path class="fil11" d="M4169 1230l-22 -89c0,0 -71,-52 -45,-125 25,-73 30,-65 30,-65 0,0 94,42 52,235l-15 44z"/>
   <path class="fil13" d="M4118 1275c0,2 -2,3 -4,3 -2,-1 -3,-3 -2,-5 0,0 17,-59 47,-84l2 8c-26,24 -42,78 -43,78z"/>
   <path class="fil13" d="M4110 1413c-2,0 -4,-1 -4,-3 0,-2 1,-4 3,-4l1 0c21,-3 38,-22 49,-45 9,-18 15,-38 16,-55 2,-1 5,-2 7,-3 -1,18 -7,41 -16,61 -13,25 -31,46 -55,49l-1 0z"/>
   <path class="fil13" d="M3764 1275c0,2 2,3 4,3 2,-1 3,-3 3,-5 -1,0 -18,-59 -48,-84l-2 8c27,24 43,78 43,78z"/>
   <path class="fil13" d="M3772 1413c2,0 4,-1 4,-3 0,-2 -1,-4 -3,-4l-1 0c-21,-3 -38,-22 -49,-45 -9,-18 -14,-38 -16,-55 -2,-1 -5,-2 -7,-3 1,18 7,41 17,61 12,25 31,46 54,49l1 0z"/>
   <path class="fil8" d="M3941 1249l178 9c0,0 7,2 7,9 0,6 -7,132 -7,132 0,0 0,12 -7,22 -7,9 -63,102 -171,102 -108,0 -164,-93 -171,-102 -7,-10 -7,-22 -7,-22 0,0 -6,-126 -7,-132 0,-7 7,-9 7,-9l178 -9z"/>
   <path class="fil14" d="M3941 1263l-171 9c2,42 5,85 7,127 0,4 2,10 4,14 5,6 9,13 14,19 10,12 20,23 32,33 32,28 71,44 114,44 43,0 82,-16 115,-44 11,-10 21,-21 31,-33 5,-6 9,-13 14,-19 3,-4 5,-10 5,-14 2,-42 5,-85 6,-127l-171 -9z"/>
   <path class="fil13" d="M4106 1387c1,-12 2,-24 2,-36l-117 -9 115 45zm-330 6l1 6c0,4 2,10 4,14 5,6 9,13 14,19 10,12 20,23 32,33 32,28 71,44 114,44 43,0 82,-16 115,-44 11,-10 21,-21 31,-33 5,-6 9,-13 14,-19 1,-1 1,-2 2,-4 0,0 -28,30 -124,30 -96,0 -203,-46 -203,-46l0 0zm-3 -66c1,16 2,33 2,49l158 -61 -160 12 0 0z"/>
   <path class="fil11" d="M3776 1039c0,0 123,101 321,-1 0,0 50,-62 82,-31 0,0 13,-171 -110,-173 0,0 22,-24 16,-43 -7,-20 -58,-66 -168,3 0,0 -8,-51 -49,-52 -79,-3 -262,178 -92,297z"/>
   <path class="fil30" d="M4422 2298c1,-6 2,-10 3,-13 3,-26 -40,-120 -81,-196 -5,-10 -18,171 -23,162 2,-25 3,-237 4,-239 1,-7 101,196 107,212 5,16 -10,74 -10,74l0 0z"/>
  </g>
 </g>
</svg>
