<?xml version="1.0" encoding="UTF-8"?>
<!DOCTYPE svg PUBLIC "-//W3C//DTD SVG 1.1//EN" "http://www.w3.org/Graphics/SVG/1.1/DTD/svg11.dtd">
<!-- Creator: CorelDRAW X7 -->
<svg xmlns="http://www.w3.org/2000/svg" xml:space="preserve" width="4.8in" height="3in" version="1.1" style="shape-rendering:geometricPrecision; text-rendering:geometricPrecision; image-rendering:optimizeQuality; fill-rule:evenodd; clip-rule:evenodd"
viewBox="0 0 4800 3000"
 xmlns:xlink="http://www.w3.org/1999/xlink">
 <defs>
  <style type="text/css">
   <![CDATA[
    .fil14 {fill:#FEFEFE}
    .fil8 {fill:#FBAF3C}
    .fil9 {fill:#F27135}
    .fil12 {fill:#ECCCC1}
    .fil10 {fill:#E1B2A2}
    .fil4 {fill:#E0AD9D}
    .fil11 {fill:#D08882}
    .fil7 {fill:#B4363F}
    .fil13 {fill:#8E3239}
    .fil1 {fill:#6D2B2E}
    .fil2 {fill:#5B282E}
    .fil3 {fill:#2B4191}
    .fil0 {fill:#FEFEFE;fill-rule:nonzero}
    .fil15 {fill:#6D2B2E;fill-rule:nonzero}
    .fil5 {fill:#1F306E;fill-rule:nonzero}
    .fil6 {fill:#1F306E;fill-rule:nonzero}
   ]]>
  </style>
 </defs>
 <g id="Layer_x0020_1">
  <metadata id="CorelCorpID_0Corel-Layer"/>
  <path class="fil0" d="M3229 1505c0,471 -383,853 -854,853 -471,0 -853,-382 -853,-853 0,-471 382,-853 853,-853 471,0 854,382 854,853z"/>
  <path class="fil1" d="M1954 1038c0,0 -189,280 21,672 110,206 77,-78 34,33 -42,111 283,174 283,174l285 0 124 -74c0,0 397,-525 95,-896 -131,-160 -276,-122 -276,-122 -393,-248 -566,213 -566,213z"/>
  <path class="fil2" d="M2830 1299c-20,19 8,132 -40,209 -48,78 -125,124 -147,61 -21,-63 55,-192 87,-260 32,-67 -28,-122 -89,-151 -60,-30 -93,-159 -93,-159 50,56 147,81 104,43 -44,-37 -116,-142 -37,-107 78,34 257,292 222,200 -36,-93 -246,-383 -342,-261 -97,121 -368,130 -257,152 110,21 254,-115 207,-33 -47,82 -240,144 -335,173 -95,30 -60,128 -32,245 28,117 -61,185 -108,120 -47,-64 -26,-224 -58,-153 -12,27 -10,98 -3,175 15,50 36,102 66,157 12,22 22,39 30,50 1,-5 2,-11 4,-17 38,-99 68,116 -4,17 -1,23 13,43 35,61 65,-2 147,-4 172,-5 43,-1 481,-20 494,-20 6,0 19,-3 31,-6 32,-51 81,-135 118,-237 24,-153 -5,-274 -25,-254z"/>
  <path class="fil3" d="M1978 1659c0,0 -113,218 -216,440 72,73 157,134 251,179 -1,-298 -35,-619 -35,-619z"/>
  <path class="fil4" d="M2390 1245l0 0c67,0 121,54 121,120l0 231c0,67 -54,121 -121,121 -66,0 -120,-54 -120,-121l0 -231c0,-66 54,-120 120,-120z"/>
  <path class="fil3" d="M2806 1659c0,0 105,203 205,416 -68,75 -149,138 -240,186 2,-292 35,-602 35,-602z"/>
  <path class="fil3" d="M2818 2235c17,-185 -12,-576 -12,-576 -87,-18 -168,-30 -207,-44 -39,-14 -57,-20 -67,-10 0,0 -51,73 -140,73 -89,0 -140,-73 -140,-73 -10,-10 -28,-4 -67,10 -39,14 -120,26 -207,44 0,0 -32,422 -10,596 121,66 260,103 407,103 162,0 314,-45 443,-123z"/>
  <path class="fil5" d="M2036 2288l-75 -240c-1,79 1,154 7,207 22,12 45,23 68,33z"/>
  <path class="fil6" d="M2754 2270l69 -222c1,69 0,136 -5,187 -21,12 -42,24 -64,35z"/>
  <path class="fil7" d="M2363 1636c0,0 88,128 111,261 23,133 7,245 17,257 10,11 177,-13 217,-69 41,-55 -130,-413 -196,-478 -66,-66 -178,-19 -149,29z"/>
  <path class="fil7" d="M2403 1776c183,-11 184,-132 184,-132 0,0 -6,-17 -15,-38 -21,-7 -33,-8 -40,-1 0,0 -51,73 -140,73 -89,0 -140,-73 -140,-73 -10,-10 -28,-4 -67,10 -11,4 -24,8 -39,11 17,70 75,162 257,150z"/>
  <path class="fil8" d="M2384 1605c0,0 88,128 110,261 23,133 7,246 17,257 10,12 177,-12 218,-68 40,-56 -130,-413 -196,-479 -67,-66 -179,-18 -149,29z"/>
  <path class="fil9" d="M2535 2123c-10,-11 6,-124 -17,-257 -23,-133 -111,-261 -111,-261 -17,-28 15,-56 58,-60 -53,-6 -102,27 -81,60 0,0 88,128 110,261 23,133 7,246 17,257 2,3 14,4 30,2 -3,0 -5,-1 -6,-2z"/>
  <path class="fil9" d="M2586 1652l0 0 -113 0c0,0 -24,12 -48,24 14,26 29,58 42,92 3,-1 6,-1 10,-2 103,-31 109,-114 109,-114z"/>
  <path class="fil8" d="M2563 1561c4,-36 -21,-65 -21,-65l-152 35 -151 -35c0,0 -25,29 -21,65 0,0 -25,49 -24,83 1,35 75,99 196,99 122,0 196,-64 197,-99 1,-34 -24,-83 -24,-83z"/>
  <path class="fil9" d="M2545 1501c-2,-3 -3,-5 -3,-5l-152 35 -151 -35c0,0 -11,12 -17,31 33,25 102,67 174,60 102,-9 149,-86 149,-86z"/>
  <path class="fil10" d="M2390 1569c-135,0 -248,-167 -248,-299l0 -176c0,-136 112,-248 248,-248l0 0c137,0 249,112 249,248l0 172c0,145 -99,303 -249,303z"/>
  <path class="fil11" d="M2639 1094c0,-53 -18,-103 -47,-144 -14,0 -30,1 -49,5 -140,30 -135,-6 -235,55 -100,61 -136,93 -141,123 -5,30 -25,115 -25,115 0,0 191,-46 287,-121 97,-75 107,-91 107,-91 0,0 30,168 103,231l0 -173z"/>
  <path class="fil12" d="M2384 1215c0,0 -7,71 -32,90 -25,20 1,27 32,10 31,-17 33,-67 0,-100z"/>
  <path class="fil1" d="M2700 1167l-23 57c0,0 -38,-4 -38,43 0,0 -73,-111 -91,-268 0,0 -155,174 -406,249 0,0 -13,-41 -39,-27 0,0 -35,-204 21,-289 55,-86 122,-171 241,-160 119,11 345,115 335,395z"/>
  <path class="fil2" d="M2677 1224l14 -36c-15,-12 -32,-22 -50,-30 -60,-30 -93,-159 -93,-159 18,157 91,268 91,268 0,-47 38,-43 38,-43z"/>
  <path class="fil2" d="M2548 999c50,56 147,81 104,43 -44,-37 -116,-142 -37,-107 12,5 26,15 41,28 -28,-50 -65,-89 -106,-118 -20,0 -39,9 -55,29 -97,121 -368,130 -257,152 110,21 254,-115 207,-33 -47,82 -240,144 -335,173 -5,2 -9,3 -13,5 3,30 6,50 6,50 26,-14 39,27 39,27 251,-75 406,-249 406,-249z"/>
  <path class="fil13" d="M2216 1164c-4,4 -5,10 -1,15 4,4 10,5 15,1 0,0 26,-23 60,-12 5,1 11,-2 13,-7 2,-6 -1,-12 -7,-13 -45,-14 -80,16 -80,16z"/>
  <path class="fil9" d="M2222 1659c-3,-22 10,-49 10,-49 0,0 24,29 147,26 123,-2 178,-74 126,-45 -51,29 -158,37 -209,20 -52,-17 -78,-50 -78,-50 0,0 -25,49 -24,83 1,33 70,95 185,99 -54,-5 -154,-62 -157,-84z"/>
  <path class="fil14" d="M2390 1289c-103,0 -194,16 -235,24 -14,3 -22,15 -19,27 50,212 227,238 252,240l5 0c25,-2 201,-28 252,-240 3,-12 -6,-24 -19,-27 -41,-8 -132,-24 -236,-24z"/>
  <path class="fil1" d="M2564 1164c5,4 5,10 2,15 -4,4 -11,5 -15,1 0,0 -27,-23 -60,-12 -6,1 -12,-2 -13,-7 -2,-6 1,-12 7,-13 44,-14 79,16 79,16z"/>
  <path class="fil0" d="M2970 1633c-10,10 -15,23 -15,36 0,13 5,26 15,36 12,11 27,17 43,17 15,0 30,-6 42,-17 14,-14 21,-33 21,-51 0,-18 -7,-37 -21,-51 -17,-17 -39,-25 -61,-25 -23,0 -45,8 -62,25 -20,21 -30,48 -30,75 0,26 10,53 30,74l9 -9 -9 8c0,1 7,9 20,17 13,8 32,16 56,16 13,0 27,-2 42,-8 51,-19 80,-73 81,-125 0,-23 -6,-47 -19,-67 -26,-41 -68,-64 -115,-64 -21,0 -44,5 -66,15 -51,21 -84,72 -84,128 0,13 2,26 5,38l24 -6c-3,-11 -4,-21 -4,-32 0,-46 28,-88 69,-106 19,-8 38,-12 56,-12 39,0 72,18 94,53 10,15 15,34 15,53 0,43 -25,87 -65,102 -12,5 -23,7 -33,7 -18,0 -33,-7 -43,-13 -5,-3 -9,-6 -11,-8l-3 -3 0 -1 0 0 -4 3 4 -3 0 0 -4 3 4 -3 -1 0 0 -1c-16,-15 -24,-36 -24,-56 0,-21 8,-42 24,-57 12,-12 28,-18 44,-18 15,0 31,6 43,18 10,9 14,21 14,33 0,12 -4,24 -14,33 -7,7 -15,11 -24,11 -10,0 -18,-4 -25,-11 -5,-5 -8,-11 -8,-18 0,-7 3,-13 8,-18l-18 -18z"/>
  <path class="fil0" d="M1776 1687c10,-10 15,-23 15,-36 0,-13 -5,-26 -15,-35 -12,-12 -27,-18 -42,-18 -16,0 -31,6 -43,18 -14,14 -21,32 -21,50 0,19 7,37 21,51 17,17 39,26 61,26 23,0 45,-9 62,-26 20,-20 31,-47 31,-74 0,-27 -11,-54 -31,-75l-9 9 9 -8c0,-1 -7,-9 -20,-17 -13,-8 -32,-16 -56,-16 -13,0 -27,2 -42,8 -51,20 -80,73 -81,126 0,23 6,46 19,66 26,42 69,64 115,64 21,0 44,-5 66,-14 51,-22 84,-73 84,-129 0,-12 -2,-25 -5,-38l-24 7c3,10 4,21 4,31 0,46 -28,89 -69,106 -19,8 -38,12 -56,12 -39,0 -72,-17 -94,-52 -10,-16 -15,-34 -15,-53 0,-44 26,-88 65,-103 12,-4 23,-6 33,-6 19,0 33,6 43,12 5,3 9,7 11,9l3 2 0 1 1 0 3 -3 -3 3 0 0 3 -3 -3 3 0 1 0 0c16,16 24,36 24,57 0,20 -8,41 -24,57 -12,12 -28,18 -44,18 -15,0 -31,-6 -43,-18 -9,-10 -14,-22 -14,-34 0,-12 5,-24 14,-33 7,-7 16,-10 25,-10 9,0 18,3 24,10 5,5 8,12 8,18 0,7 -3,13 -8,18l18 18z"/>
  <path class="fil15" d="M2516 1268c-14,0 -27,-6 -35,-19 -6,-9 -7,-22 -3,-34 4,-11 12,-20 22,-24 22,-8 35,7 36,8 12,12 12,32 -1,44 -10,11 -26,11 -37,0 -4,-4 -6,-9 -6,-15 0,-6 2,-11 6,-15 7,-7 19,-7 26,0 6,6 6,15 0,21l-5 -5c3,-3 3,-8 0,-11 -5,-4 -11,-4 -15,0 -6,6 -6,14 0,20 7,7 19,7 26,0 9,-9 9,-25 0,-34 -1,-1 -11,-12 -27,-6 -8,3 -15,10 -18,20 -3,9 -2,19 3,27 9,15 26,20 45,12 15,-7 24,-25 19,-41l8 -2c5,20 -5,42 -24,50 -7,3 -14,4 -20,4z"/>
  <path class="fil15" d="M2267 1268c-14,0 -27,-6 -35,-19 -6,-9 -7,-22 -3,-34 3,-11 12,-20 22,-24 22,-8 35,7 36,8 12,12 12,32 -1,44 -10,11 -27,11 -37,0 -4,-4 -6,-9 -6,-15 0,-6 2,-11 6,-15 7,-7 19,-7 26,0 6,6 6,15 0,21l-5 -5c2,-3 2,-8 0,-11 -5,-4 -11,-4 -15,0 -6,6 -6,14 0,20 7,7 19,7 26,0 9,-9 9,-25 0,-34 -1,-1 -11,-12 -28,-6 -8,3 -14,10 -17,20 -3,9 -2,19 2,27 10,15 27,20 46,12 15,-7 24,-25 19,-41l7 -2c6,20 -4,42 -23,50 -7,3 -14,4 -20,4z"/>
 </g>
</svg>
